<svg width="272" height="228" viewBox="0 0 272 228" fill="none" xmlns="http://www.w3.org/2000/svg">
<path d="M265.022 228H6.97779C6.06008 228.005 5.15051 227.827 4.30171 227.478C3.45291 227.129 2.68174 226.614 2.03282 225.964C1.38389 225.314 0.870109 224.542 0.521195 223.692C0.172281 222.842 -0.00483367 221.931 0.000100318 221.012V6.98767C-0.00483367 6.06867 0.172281 5.15781 0.521195 4.30781C0.870109 3.45781 1.38389 2.68554 2.03282 2.0357C2.68174 1.38585 3.45291 0.871342 4.30171 0.521934C5.15051 0.172525 6.06008 -0.00484052 6.97779 0.00010046H265.022C265.94 -0.00484052 266.849 0.172525 267.698 0.521934C268.547 0.871342 269.318 1.38585 269.967 2.0357C270.616 2.68554 271.13 3.45781 271.478 4.30781C271.827 5.15781 272.005 6.06867 272 6.98767V220.845C272.019 222.719 271.296 224.526 269.988 225.867C268.68 227.208 266.894 227.975 265.022 228Z" fill="#091717"/>
<path opacity="0.5" d="M139.002 14H132.516L133.002 198H139.002V14Z" fill="white"/>
<path d="M139 132.465H132.828L133 211H139V132.465Z" fill="white"/>
<path opacity="0.5" d="M132.986 74L44 74V80H133L132.986 74Z" fill="white"/>
<path d="M226.998 132.482H138.484V138.606H226.998V132.482Z" fill="white"/>
<path d="M177.64 171.62C177.48 173.42 176.84 174.84 175.76 175.84C174.68 176.84 173.24 177.34 171.46 177.34C169.44 177.34 167.84 176.68 166.66 175.34C165.46 174 164.88 172.18 164.88 169.9C164.88 167.78 165.46 166 166.66 164.58C167.86 163.16 169.5 162.44 171.62 162.44C173.12 162.44 174.44 162.86 175.58 163.66C176.74 164.48 177.38 165.6 177.5 167.04H175.62C175.42 166.12 174.94 165.38 174.22 164.86C173.5 164.34 172.62 164.06 171.56 164.06C169.98 164.06 168.78 164.62 167.98 165.74C167.18 166.86 166.78 168.24 166.78 169.88C166.78 171.7 167.2 173.12 168.06 174.16C168.9 175.2 170.08 175.72 171.56 175.72C172.76 175.72 173.74 175.38 174.46 174.68C175.18 173.98 175.6 172.96 175.76 171.62H177.64ZM188.854 175.64V176.98C188.494 177.1 188.114 177.18 187.694 177.18C186.714 177.18 186.214 176.66 186.194 175.66C185.214 176.74 183.974 177.3 182.454 177.3C181.434 177.3 180.634 177.04 180.034 176.52C179.434 176 179.154 175.28 179.154 174.38C179.154 172.54 180.374 171.46 182.814 171.16C182.974 171.12 183.194 171.1 183.514 171.08C184.674 170.94 185.374 170.78 185.654 170.62C185.954 170.4 186.114 170.04 186.114 169.52C186.114 168.38 185.334 167.82 183.774 167.82C182.974 167.82 182.354 167.98 181.954 168.3C181.534 168.62 181.294 169.16 181.214 169.92H179.554C179.574 168.8 179.974 167.94 180.734 167.34C181.494 166.72 182.534 166.42 183.874 166.42C185.314 166.42 186.394 166.74 187.114 167.42C187.334 167.62 187.494 167.9 187.614 168.26C187.714 168.6 187.774 168.88 187.794 169.1C187.794 169.32 187.814 169.66 187.814 170.1C187.814 170.6 187.794 171.36 187.774 172.38C187.734 173.42 187.734 174.18 187.734 174.68C187.734 175.06 187.774 175.32 187.874 175.48C187.974 175.64 188.154 175.7 188.434 175.7C188.534 175.7 188.674 175.68 188.854 175.64ZM186.114 171.66C185.994 171.74 185.854 171.82 185.734 171.9C185.594 171.96 185.414 172.02 185.214 172.06C185.014 172.1 184.874 172.12 184.794 172.14C184.714 172.16 184.554 172.18 184.274 172.22C183.994 172.26 183.834 172.28 183.834 172.28C183.414 172.32 183.134 172.36 183.014 172.38C182.894 172.4 182.654 172.46 182.294 172.56C181.934 172.64 181.694 172.76 181.554 172.88C181.394 173 181.254 173.16 181.114 173.4C180.974 173.64 180.914 173.92 180.914 174.24C180.914 174.76 181.094 175.18 181.454 175.5C181.814 175.8 182.334 175.96 182.974 175.96C183.774 175.96 184.514 175.72 185.154 175.24C185.794 174.76 186.114 174.18 186.114 173.54V171.66ZM192.056 166.68V168.14C192.796 166.96 193.956 166.36 195.536 166.36C196.976 166.36 198.116 166.86 198.956 167.82C199.796 168.8 200.236 170.12 200.236 171.78C200.236 173.46 199.816 174.78 198.976 175.78C198.136 176.78 197.016 177.26 195.616 177.26C194.136 177.26 192.976 176.7 192.156 175.56V180.98H190.456V166.68H192.056ZM195.276 167.78C194.276 167.78 193.496 168.14 192.936 168.86C192.376 169.58 192.096 170.56 192.096 171.8C192.096 173.06 192.376 174.04 192.956 174.76C193.536 175.48 194.336 175.84 195.336 175.84C196.296 175.84 197.076 175.48 197.636 174.76C198.196 174.04 198.476 173.06 198.476 171.82C198.476 170.56 198.176 169.58 197.616 168.86C197.056 168.14 196.276 167.78 195.276 167.78ZM204.111 162.76V164.84H202.391V162.76H204.111ZM204.111 166.68V177H202.391V166.68H204.111ZM211.165 166.68V168.08H209.105V174.1C209.105 174.44 209.105 174.66 209.105 174.76C209.105 174.88 209.145 175.02 209.225 175.2C209.285 175.38 209.405 175.5 209.565 175.54C209.725 175.6 209.945 175.62 210.245 175.62C210.485 175.62 210.805 175.6 211.165 175.56V177.02C210.685 177.08 210.245 177.1 209.865 177.1C209.385 177.1 208.985 177.06 208.665 176.94C208.345 176.84 208.085 176.72 207.925 176.58C207.765 176.46 207.645 176.22 207.565 175.88C207.485 175.54 207.425 175.26 207.425 175.02C207.405 174.78 207.405 174.4 207.405 173.84V173.76V173.66V173.56V168.08H205.665V166.68H207.405V163.62H209.105V166.68H211.165ZM222.193 175.64V176.98C221.833 177.1 221.453 177.18 221.033 177.18C220.053 177.18 219.553 176.66 219.533 175.66C218.553 176.74 217.313 177.3 215.793 177.3C214.773 177.3 213.973 177.04 213.373 176.52C212.773 176 212.493 175.28 212.493 174.38C212.493 172.54 213.713 171.46 216.153 171.16C216.313 171.12 216.533 171.1 216.853 171.08C218.013 170.94 218.713 170.78 218.993 170.62C219.293 170.4 219.453 170.04 219.453 169.52C219.453 168.38 218.673 167.82 217.113 167.82C216.313 167.82 215.693 167.98 215.293 168.3C214.873 168.62 214.633 169.16 214.553 169.92H212.893C212.913 168.8 213.313 167.94 214.073 167.34C214.833 166.72 215.873 166.42 217.213 166.42C218.653 166.42 219.733 166.74 220.453 167.42C220.673 167.62 220.833 167.9 220.953 168.26C221.053 168.6 221.113 168.88 221.133 169.1C221.133 169.32 221.153 169.66 221.153 170.1C221.153 170.6 221.133 171.36 221.113 172.38C221.073 173.42 221.073 174.18 221.073 174.68C221.073 175.06 221.113 175.32 221.213 175.48C221.313 175.64 221.493 175.7 221.773 175.7C221.873 175.7 222.013 175.68 222.193 175.64ZM219.453 171.66C219.333 171.74 219.193 171.82 219.073 171.9C218.933 171.96 218.753 172.02 218.553 172.06C218.353 172.1 218.213 172.12 218.133 172.14C218.053 172.16 217.893 172.18 217.613 172.22C217.333 172.26 217.173 172.28 217.173 172.28C216.753 172.32 216.473 172.36 216.353 172.38C216.233 172.4 215.993 172.46 215.633 172.56C215.273 172.64 215.033 172.76 214.893 172.88C214.733 173 214.593 173.16 214.453 173.4C214.313 173.64 214.253 173.92 214.253 174.24C214.253 174.76 214.433 175.18 214.793 175.5C215.153 175.8 215.673 175.96 216.313 175.96C217.113 175.96 217.853 175.72 218.493 175.24C219.133 174.76 219.453 174.18 219.453 173.54V171.66ZM225.596 162.76V177H223.876V162.76H225.596Z" fill="white"/>
</svg>
