<svg width="272" height="228" viewBox="0 0 272 228" fill="none" xmlns="http://www.w3.org/2000/svg">
<path d="M265.022 228H6.97779C6.06008 228.005 5.15051 227.827 4.30171 227.478C3.45291 227.129 2.68174 226.614 2.03282 225.964C1.38389 225.314 0.870109 224.542 0.521195 223.692C0.172281 222.842 -0.00483367 221.931 0.000100318 221.012V6.98767C-0.00483367 6.06867 0.172281 5.15781 0.521195 4.30781C0.870109 3.45781 1.38389 2.68554 2.03282 2.0357C2.68174 1.38585 3.45291 0.871342 4.30171 0.521934C5.15051 0.172525 6.06008 -0.00484052 6.97779 0.00010046H265.022C265.94 -0.00484052 266.849 0.172525 267.698 0.521934C268.547 0.871342 269.318 1.38585 269.967 2.0357C270.616 2.68554 271.13 3.45781 271.478 4.30781C271.827 5.15781 272.005 6.06867 272 6.98767V220.845C272.019 222.719 271.296 224.526 269.988 225.867C268.68 227.208 266.894 227.975 265.022 228Z" fill="#091717"/>
<path d="M139 14H132.5L132.74 139.117H139V14Z" fill="white"/>
<path opacity="0.5" d="M139 74H132.5L133 211H139V74Z" fill="white"/>
<path opacity="0.5" d="M132.986 74L44 74V80H133L132.986 74Z" fill="white"/>
<path d="M227.514 133H139V139.123H227.514V133Z" fill="white"/>
<path d="M163.64 79.62C163.48 81.42 162.84 82.84 161.76 83.84C160.68 84.84 159.24 85.34 157.46 85.34C155.44 85.34 153.84 84.68 152.66 83.34C151.46 82 150.88 80.18 150.88 77.9C150.88 75.78 151.46 74 152.66 72.58C153.86 71.16 155.5 70.44 157.62 70.44C159.12 70.44 160.44 70.86 161.58 71.66C162.74 72.48 163.38 73.6 163.5 75.04H161.62C161.42 74.12 160.94 73.38 160.22 72.86C159.5 72.34 158.62 72.06 157.56 72.06C155.98 72.06 154.78 72.62 153.98 73.74C153.18 74.86 152.78 76.24 152.78 77.88C152.78 79.7 153.2 81.12 154.06 82.16C154.9 83.2 156.08 83.72 157.56 83.72C158.76 83.72 159.74 83.38 160.46 82.68C161.18 81.98 161.6 80.96 161.76 79.62H163.64ZM170.234 74.38C171.794 74.38 172.994 74.86 173.874 75.82C174.734 76.76 175.174 78.08 175.174 79.78C175.174 81.54 174.734 82.9 173.874 83.86C172.994 84.84 171.774 85.32 170.214 85.32C168.634 85.32 167.394 84.84 166.514 83.88C165.614 82.92 165.174 81.6 165.174 79.88C165.174 78.2 165.614 76.86 166.534 75.86C167.434 74.88 168.674 74.38 170.234 74.38ZM170.194 75.82C169.194 75.82 168.394 76.18 167.814 76.9C167.214 77.64 166.934 78.62 166.934 79.84C166.934 81.12 167.214 82.1 167.794 82.82C168.374 83.54 169.194 83.88 170.234 83.88C171.234 83.88 172.014 83.52 172.574 82.8C173.134 82.08 173.434 81.1 173.434 79.82C173.434 78.6 173.134 77.62 172.554 76.9C171.974 76.18 171.194 75.82 170.194 75.82ZM178.798 74.68L178.778 76.2C179.238 75.58 179.718 75.14 180.238 74.86C180.758 74.58 181.398 74.44 182.138 74.44C183.558 74.44 184.518 75.02 185.018 76.22C185.898 75.02 187.038 74.42 188.438 74.42C189.498 74.42 190.298 74.7 190.858 75.3C191.418 75.9 191.698 76.72 191.698 77.8V85.02H189.998V78.52C189.998 77.66 189.858 77.02 189.598 76.58C189.318 76.14 188.778 75.94 187.938 75.94C186.178 75.94 185.298 77 185.298 79.16V85.02H183.598V78.4C183.598 77.6 183.458 77 183.198 76.58C182.938 76.16 182.438 75.96 181.698 75.96C180.638 75.96 179.898 76.28 179.498 76.92C179.098 77.56 178.898 78.44 178.898 79.54V85H177.198V74.68H178.798ZM195.849 74.68L195.829 76.2C196.289 75.58 196.769 75.14 197.289 74.86C197.809 74.58 198.449 74.44 199.189 74.44C200.609 74.44 201.569 75.02 202.069 76.22C202.949 75.02 204.089 74.42 205.489 74.42C206.549 74.42 207.349 74.7 207.909 75.3C208.469 75.9 208.749 76.72 208.749 77.8V85.02H207.049V78.52C207.049 77.66 206.909 77.02 206.649 76.58C206.369 76.14 205.829 75.94 204.989 75.94C203.229 75.94 202.349 77 202.349 79.16V85.02H200.649V78.4C200.649 77.6 200.509 77 200.249 76.58C199.989 76.16 199.489 75.96 198.749 75.96C197.689 75.96 196.949 76.28 196.549 76.92C196.149 77.56 195.949 78.44 195.949 79.54V85H194.249V74.68H195.849ZM219.86 74.68L219.84 85H218.26V83.38C217.38 84.66 216.2 85.28 214.7 85.28C213.62 85.28 212.76 84.98 212.16 84.38C211.56 83.78 211.26 82.92 211.26 81.78V74.68H212.96V81.32C212.96 82.14 213.12 82.76 213.44 83.18C213.76 83.6 214.32 83.8 215.14 83.8C217.14 83.8 218.16 82.56 218.16 80.08V74.68H219.86ZM224.013 74.68V76.28C224.853 75.04 226.033 74.4 227.533 74.4C228.733 74.4 229.613 74.72 230.153 75.36C230.693 76 230.973 76.92 230.973 78.14V85H229.273V78.92C229.273 78.42 229.253 78.02 229.213 77.74C229.173 77.46 229.093 77.14 228.973 76.82C228.833 76.5 228.613 76.26 228.293 76.1C227.973 75.96 227.553 75.88 227.053 75.88C225.093 75.88 224.113 77.12 224.113 79.6V85H222.413V74.68H224.013ZM235.326 70.76V72.84H233.606V70.76H235.326ZM235.326 74.68V85H233.606V74.68H235.326ZM242.38 74.68V76.08H240.32V82.1C240.32 82.44 240.32 82.66 240.32 82.76C240.32 82.88 240.36 83.02 240.44 83.2C240.5 83.38 240.62 83.5 240.78 83.54C240.94 83.6 241.16 83.62 241.46 83.62C241.7 83.62 242.02 83.6 242.38 83.56V85.02C241.9 85.08 241.46 85.1 241.08 85.1C240.6 85.1 240.2 85.06 239.88 84.94C239.56 84.84 239.3 84.72 239.14 84.58C238.98 84.46 238.86 84.22 238.78 83.88C238.7 83.54 238.64 83.26 238.64 83.02C238.62 82.78 238.62 82.4 238.62 81.84V81.76V81.66V81.56V76.08H236.88V74.68H238.62V71.62H240.32V74.68H242.38ZM252.808 74.68L248.388 86.32C248.208 86.8 248.048 87.16 247.928 87.42C247.808 87.68 247.628 87.96 247.388 88.28C247.148 88.6 246.868 88.82 246.548 88.96C246.228 89.1 245.848 89.16 245.408 89.16C245.068 89.16 244.648 89.1 244.148 88.98V87.46C244.628 87.62 245.008 87.68 245.248 87.68C245.808 87.68 246.208 87.4 246.448 86.82L247.248 84.94L243.148 74.68H245.068L248.128 82.9L251.028 74.68H252.808Z" fill="white"/>
</svg>
