<svg width="342" height="105" viewBox="0 0 342 105" fill="none" xmlns="http://www.w3.org/2000/svg">
<g clip-path="url(#clip0_972_21366)">
<mask id="mask0_972_21366" style="mask-type:luminance" maskUnits="userSpaceOnUse" x="-1" y="-1" width="343" height="106">
<path d="M341.83 -0.495117H-0.800781V104.554H341.83V-0.495117Z" fill="white"/>
</mask>
<g mask="url(#mask0_972_21366)">
<path d="M185.335 56.6573C181.189 60.638 175.502 62.6284 168.274 62.6284C160.438 62.6284 154.126 60.0352 149.337 54.8489C144.549 49.6625 142.161 42.7957 142.172 34.2485C142.172 26.1506 144.586 19.4202 149.414 14.0576C154.242 8.69499 160.682 6.01367 168.735 6.01367C175.155 6.01367 180.558 7.83344 184.942 11.473C187.038 13.1655 188.761 15.2741 190.002 17.6658C191.242 20.0574 191.974 22.6802 192.15 25.3686H180.481C180.022 22.6331 178.578 20.1601 176.421 18.4165C174.134 16.7148 171.335 15.8451 168.487 15.9513C165.477 15.8596 162.532 16.8423 160.179 18.7236C157.978 20.498 156.332 22.8663 155.436 25.5478C154.498 28.3867 154.034 31.361 154.063 34.3509C154.063 39.9239 155.354 44.3653 157.936 47.675C159.144 49.2762 160.719 50.5636 162.529 51.4291C164.338 52.2945 166.329 52.7126 168.334 52.6481C175.568 52.6481 179.69 48.5991 180.703 40.5011H192.474C191.86 47.2911 189.48 52.6765 185.335 56.6573Z" fill="#091717"/>
<path d="M236.038 61.3827H225.801V55.804C224.436 57.9264 222.543 59.6578 220.308 60.8286C218.072 61.9994 215.571 62.5695 213.049 62.4831C208.75 62.4831 205.397 61.3088 202.992 58.9601C200.586 56.6115 199.381 53.1426 199.375 48.5533V22.2207H210.234V44.6124C210.216 45.7896 210.278 46.9667 210.422 48.1354C210.563 49.0657 210.829 49.9725 211.215 50.8309C211.608 51.7317 212.327 52.4508 213.228 52.844C214.371 53.3124 215.601 53.5334 216.836 53.4923C222.523 53.4923 225.366 49.7959 225.366 42.4031V22.2207H236.072L236.038 61.3827Z" fill="#091717"/>
<path d="M254.932 26.9982C257.969 23.2108 262.095 21.3143 267.31 21.3086C272.524 21.3029 276.622 23.1995 279.601 26.9982C282.604 30.797 284.105 35.6052 284.105 41.4227C284.105 47.6782 282.499 52.7508 279.286 56.6406C277.782 58.5129 275.865 60.0116 273.685 61.0194C271.505 62.0272 269.122 62.5167 266.721 62.4496C261.313 62.4496 257.215 60.4592 254.429 56.4785L254.506 61.4089H244.27V7.34473H254.932V26.9982ZM257.099 32.7732C255.393 34.9228 254.54 37.8458 254.54 41.5422C254.54 45.3409 255.373 48.3265 257.039 50.4988C257.842 51.5599 258.89 52.4107 260.093 52.9782C261.296 53.5457 262.619 53.813 263.949 53.7574C265.255 53.7904 266.549 53.5038 267.719 52.9225C268.889 52.3412 269.899 51.4828 270.662 50.4221C272.368 48.1985 273.221 45.213 273.221 41.4654C273.221 37.877 272.368 34.991 270.662 32.8073C269.887 31.7649 268.872 30.9246 267.704 30.3574C266.535 29.7902 265.247 29.5128 263.949 29.5488C262.633 29.5038 261.325 29.7728 260.134 30.3335C258.943 30.8942 257.903 31.7305 257.099 32.7732Z" fill="#091717"/>
<path d="M320.784 59.0291C317.37 61.4019 313.288 62.6241 309.132 62.5179C303.11 62.5179 298.276 60.6469 294.631 56.905C290.986 53.1631 289.152 48.2043 289.129 42.0284C289.129 35.9549 290.977 30.9449 294.674 26.9983C296.468 25.0613 298.656 23.5308 301.091 22.5097C303.526 21.4887 306.152 21.0006 308.791 21.0783C314.711 21.0783 319.417 23.0915 322.908 27.1177C326.4 31.1439 328.146 36.5947 328.146 43.47V44.5363H300.013C300.065 47.9484 300.866 50.5074 302.487 52.2732C303.342 53.1838 304.386 53.8957 305.546 54.3586C306.706 54.8214 307.954 55.0239 309.2 54.9516C312.999 54.9516 315.655 53.0522 317.168 49.2535H327.489C326.452 53.1893 324.082 56.644 320.784 59.0291ZM314.677 31.3657C313.938 30.5368 313.023 29.8849 311.998 29.4581C310.973 29.0313 309.865 28.8408 308.757 28.9005C307.667 28.8728 306.584 29.0672 305.572 29.472C304.56 29.8768 303.641 30.4834 302.871 31.2548C301.215 33.0144 300.221 35.2932 300.056 37.7036H317.21C317.051 35.3762 316.161 33.1584 314.668 31.3657H314.677Z" fill="#091717"/>
<path d="M121.495 104.375H3.19886C2.77815 104.377 2.36117 104.296 1.97205 104.136C1.58294 103.976 1.2294 103.741 0.931914 103.443C0.634425 103.146 0.398888 102.792 0.238934 102.403C0.0789796 102.014 -0.00221592 101.597 4.59894e-05 101.176V3.19886C-0.00221592 2.77815 0.0789796 2.36117 0.238934 1.97206C0.398888 1.58294 0.634425 1.2294 0.931914 0.931914C1.2294 0.634425 1.58294 0.398888 1.97205 0.238934C2.36117 0.0789797 2.77815 -0.00221592 3.19886 4.59894e-05H121.495C121.916 -0.00221592 122.333 0.0789797 122.722 0.238934C123.111 0.398888 123.465 0.634425 123.762 0.931914C124.06 1.2294 124.295 1.58294 124.455 1.97206C124.615 2.36117 124.696 2.77815 124.694 3.19886V101.1C124.703 101.958 124.371 102.785 123.772 103.399C123.172 104.013 122.353 104.364 121.495 104.375Z" fill="#091717"/>
<path d="M63.9067 7.43848H60.9297V96.8602H63.9067V7.43848Z" fill="#F7F7F7"/>
<path d="M60.9303 36.3809H17.9297V39.3579H60.9303V36.3809Z" fill="#F7F7F7"/>
<path d="M106.833 65.0254H63.832V68.0024H106.833V65.0254Z" fill="#F7F7F7"/>
<path d="M165.639 82.8023H156.776V88.0569H164.59V89.925H156.776V97.713H154.559V80.8574H165.648L165.639 82.8023Z" fill="#091717"/>
<path d="M177.421 86.8287C178.521 88.1422 179.073 89.8279 178.965 91.5373C179.073 93.2832 178.522 95.0061 177.421 96.3654C176.869 96.9491 176.196 97.4045 175.449 97.6993C174.701 97.9941 173.898 98.1211 173.097 98.0714C172.286 98.1156 171.476 97.9863 170.72 97.6921C169.964 97.3978 169.279 96.9455 168.712 96.3654C167.59 95.0522 167.021 93.3551 167.125 91.6312C167.031 89.8963 167.608 88.1916 168.738 86.8713C169.302 86.2896 169.985 85.8361 170.74 85.5418C171.495 85.2474 172.304 85.119 173.114 85.1653C173.909 85.115 174.706 85.2377 175.45 85.5248C176.193 85.8119 176.866 86.2568 177.421 86.8287ZM170.256 88.1253C169.508 89.1358 169.137 90.3759 169.207 91.6312C169.135 92.8893 169.499 94.1338 170.239 95.1541C170.587 95.5735 171.028 95.906 171.527 96.1251C172.026 96.3443 172.569 96.4441 173.114 96.4166C173.646 96.4408 174.176 96.3373 174.659 96.1147C175.143 95.8921 175.567 95.5569 175.894 95.1371C176.619 94.1107 176.974 92.8686 176.901 91.6141C176.967 90.3738 176.606 89.1483 175.877 88.1423C175.53 87.7369 175.099 87.4115 174.613 87.1883C174.128 86.9652 173.601 86.8497 173.067 86.8497C172.533 86.8497 172.005 86.9652 171.52 87.1883C171.035 87.4115 170.604 87.7369 170.256 88.1423V88.1253Z" fill="#091717"/>
<path d="M191.485 97.7134H189.617V95.8027C189.165 96.5057 188.54 97.0811 187.803 97.4739C187.065 97.8666 186.239 98.0637 185.403 98.0461C184.855 98.0822 184.306 98.0063 183.788 97.823C183.27 97.6396 182.795 97.3528 182.392 96.9799C182.017 96.5657 181.73 96.0804 181.547 95.5528C181.364 95.0252 181.288 94.4662 181.326 93.909V85.4982H183.339V93.3375C183.288 94.1057 183.482 94.8704 183.893 95.5212C184.144 95.7964 184.456 96.008 184.805 96.1385C185.154 96.269 185.528 96.3147 185.898 96.2719C188.281 96.2719 189.472 94.8047 189.472 91.8703V85.4727H191.485V97.7134Z" fill="#091717"/>
<path d="M196.407 87.3661C196.849 86.6649 197.467 86.091 198.198 85.7006C198.929 85.3103 199.75 85.117 200.578 85.1397C201.148 85.0868 201.723 85.1603 202.261 85.3549C202.799 85.5495 203.288 85.8605 203.692 86.2657C204.389 87.2192 204.728 88.3883 204.647 89.5669V97.6876H202.634V90.5222C202.642 90.0523 202.622 89.5823 202.574 89.1148C202.526 88.7388 202.425 88.3714 202.276 88.0229C202.13 87.6448 201.842 87.3387 201.474 87.1699C201.008 86.983 200.508 86.8958 200.007 86.914C197.687 86.914 196.527 88.3812 196.527 91.3156V97.7047H194.539V85.498H196.433L196.407 87.3661Z" fill="#091717"/>
<path d="M218.688 97.713H216.794V95.8961C216.398 96.5999 215.808 97.1747 215.094 97.5514C214.38 97.9282 213.572 98.0909 212.768 98.0201C211.995 98.0596 211.223 97.9271 210.508 97.632C209.792 97.337 209.151 96.8869 208.631 96.3141C207.556 94.9847 207.012 93.304 207.104 91.5969C207.041 89.9428 207.547 88.3171 208.537 86.9906C209.029 86.3763 209.662 85.8891 210.382 85.5699C211.102 85.2508 211.888 85.1091 212.674 85.1566C213.455 85.1164 214.234 85.2782 214.935 85.6263C215.635 85.9744 216.235 86.4972 216.675 87.1442V80.8574H218.688V97.713ZM210.2 88.1251C209.481 89.1124 209.126 90.3178 209.194 91.5372C209.127 92.7988 209.487 94.046 210.217 95.0772C210.54 95.5009 210.959 95.8412 211.44 96.0697C211.92 96.2982 212.449 96.4084 212.981 96.3909C213.506 96.4144 214.03 96.3121 214.507 96.0925C214.985 95.8729 215.404 95.5424 215.728 95.1284C216.436 94.1043 216.784 92.8742 216.717 91.631C216.77 90.4247 216.445 89.232 215.788 88.219C215.468 87.7661 215.037 87.4028 214.537 87.1638C214.036 86.9249 213.483 86.8182 212.93 86.8541C212.407 86.8343 211.886 86.9393 211.412 87.1603C210.937 87.3813 210.522 87.712 210.2 88.1251Z" fill="#091717"/>
<path d="M226.828 98.1229C226.035 98.1684 225.242 98.0392 224.505 97.7444C223.768 97.4496 223.105 96.9964 222.563 96.4168C221.479 95.1122 220.933 93.4437 221.036 91.7508C220.954 90.0146 221.513 88.3088 222.605 86.9569C223.105 86.358 223.736 85.8814 224.449 85.5635C225.161 85.2457 225.937 85.095 226.717 85.1229C227.517 85.0649 228.319 85.2086 229.049 85.541C229.78 85.8733 230.415 86.3836 230.897 87.0251C231.846 88.4482 232.321 90.1353 232.253 91.8447V92.1262H223.109V92.2712C223.042 93.3817 223.406 94.4751 224.124 95.325C224.481 95.7001 224.915 95.9934 225.397 96.1849C225.878 96.3763 226.396 96.4612 226.913 96.4339C227.662 96.4763 228.403 96.2594 229.011 95.8197C229.598 95.2906 230.014 94.5987 230.206 93.8322H232.176C231.539 96.687 229.756 98.1172 226.828 98.1229ZM229.148 87.7843C228.835 87.4559 228.455 87.1985 228.034 87.0292C227.614 86.86 227.161 86.783 226.708 86.8033C226.255 86.7911 225.805 86.8726 225.385 87.0429C224.965 87.2132 224.585 87.4686 224.269 87.7928C223.587 88.5471 223.179 89.5084 223.109 90.5225H230.214C230.184 89.5144 229.807 88.5476 229.148 87.7843Z" fill="#091717"/>
<path d="M240.791 87.2976C240.046 87.2218 239.294 87.3151 238.59 87.5706C238.162 87.7387 237.777 88.0011 237.464 88.3383C237.173 88.6916 236.945 89.0928 236.79 89.524C236.625 89.9848 236.51 90.4626 236.449 90.9485C236.392 91.4812 236.363 92.0165 236.364 92.5522V97.6703H234.359V85.4978H236.27V88.125C236.609 87.217 237.232 86.4429 238.047 85.9186C238.862 85.3943 239.825 85.1479 240.791 85.2163V87.2976Z" fill="#091717"/>
<path d="M249.361 89.072C249.233 87.5878 248.243 86.8457 246.375 86.8457C245.739 86.8092 245.106 86.9637 244.558 87.2892C244.353 87.4169 244.183 87.5954 244.067 87.8076C243.95 88.0198 243.89 88.2584 243.893 88.5005C243.894 88.6409 243.908 88.7808 243.936 88.9185C243.969 89.0467 244.03 89.166 244.115 89.2682L244.354 89.5412C244.455 89.6409 244.577 89.7166 244.712 89.763L245.087 89.9421C245.239 90.0151 245.399 90.0668 245.565 90.0957L246.051 90.2151L246.606 90.343C246.879 90.4113 247.058 90.4539 247.134 90.4625C247.723 90.5904 248.158 90.6928 248.448 90.7695C248.859 90.8962 249.264 91.0443 249.659 91.2131C250.081 91.3731 250.475 91.5976 250.828 91.8785C251.132 92.1415 251.378 92.4636 251.553 92.8253C251.769 93.2442 251.878 93.7103 251.869 94.1816C251.887 94.7342 251.771 95.2831 251.53 95.7809C251.29 96.2787 250.931 96.7105 250.487 97.0392C249.415 97.8022 248.116 98.181 246.802 98.114C245.441 98.1971 244.092 97.8118 242.98 97.0222C242.524 96.6354 242.16 96.1527 241.912 95.6085C241.664 95.0644 241.54 94.4723 241.547 93.8745H243.535C243.643 95.5806 244.749 96.4336 246.853 96.4336C247.616 96.4701 248.371 96.2738 249.02 95.8706C249.279 95.721 249.494 95.5059 249.644 95.2469C249.793 94.9879 249.872 94.694 249.873 94.3949C249.878 94.2051 249.842 94.0165 249.769 93.8415C249.695 93.6665 249.585 93.5091 249.446 93.3798C249.177 93.1195 248.854 92.9214 248.499 92.7997C248.15 92.6803 247.646 92.5438 247.007 92.3817L246.793 92.3306L245.881 92.1344C245.411 92.032 245.079 91.9467 244.874 91.887L244.021 91.5884C243.715 91.4949 243.426 91.3507 243.168 91.1619C242.946 90.9843 242.735 90.7934 242.537 90.5904C242.308 90.3693 242.141 90.0932 242.051 89.7886C241.95 89.4479 241.902 89.0944 241.905 88.7394C241.888 88.2299 241.995 87.7239 242.216 87.2648C242.437 86.8056 242.767 86.4071 243.176 86.1035C244.176 85.4139 245.376 85.075 246.589 85.1396C247.84 85.0806 249.076 85.4376 250.103 86.1547C250.549 86.4886 250.907 86.9267 251.145 87.4308C251.383 87.9349 251.494 88.4896 251.468 89.0464L249.361 89.072Z" fill="#091717"/>
<path d="M270.858 85.8051C270.619 83.5304 269.223 82.3931 266.67 82.3931C265.675 82.3331 264.686 82.5899 263.846 83.1267C263.525 83.3617 263.267 83.6722 263.094 84.0308C262.922 84.3893 262.84 84.7849 262.857 85.1824C262.848 85.4728 262.894 85.7623 262.993 86.0354C263.1 86.2805 263.268 86.4946 263.479 86.6581C263.69 86.8228 263.909 86.9765 264.136 87.1188C264.44 87.2868 264.764 87.4157 265.1 87.5026L266.166 87.7756L267.42 88.04C268.12 88.185 268.691 88.313 269.126 88.4324C269.685 88.5876 270.232 88.7815 270.764 89.0125C271.304 89.2204 271.81 89.5079 272.265 89.8655C272.666 90.2351 272.995 90.6744 273.238 91.1621C273.517 91.7265 273.657 92.3494 273.647 92.979C273.682 94.0574 273.331 95.1129 272.658 95.956C272.032 96.7429 271.194 97.3348 270.244 97.6621C269.224 97.9899 268.158 98.1512 267.088 98.1398C265.274 98.2309 263.484 97.7014 262.012 96.6384C261.366 96.1008 260.857 95.4177 260.526 94.6451C260.196 93.8726 260.053 93.0326 260.11 92.1942H262.259C262.232 92.7954 262.349 93.3944 262.601 93.9407C262.854 94.487 263.234 94.9647 263.71 95.3333C264.767 96.0311 266.018 96.3747 267.284 96.3143C268.318 96.3445 269.341 96.094 270.244 95.5892C270.648 95.3511 270.978 95.0042 271.195 94.588C271.412 94.1718 271.508 93.703 271.472 93.2349C271.485 92.7827 271.37 92.336 271.139 91.9469C270.879 91.5706 270.519 91.275 270.099 91.0938C269.637 90.8759 269.161 90.6906 268.674 90.5394C268.205 90.3944 267.582 90.2408 266.806 90.0702L266.567 90.019C265.407 89.7929 264.266 89.4763 263.155 89.0722C262.406 88.8048 261.762 88.3043 261.319 87.6441C260.875 86.9839 260.655 86.1989 260.69 85.4042C260.646 84.6986 260.789 83.9938 261.103 83.3605C261.417 82.7273 261.893 82.1877 262.481 81.796C263.768 80.9417 265.287 80.504 266.832 80.542C268.417 80.457 269.983 80.9276 271.259 81.8727C271.829 82.3576 272.282 82.9641 272.586 83.6477C272.891 84.3312 273.037 85.0743 273.016 85.8222L270.858 85.8051Z" fill="#091717"/>
<path d="M277.956 87.2296C278.389 86.5399 279.001 85.9799 279.726 85.6091C280.451 85.2382 281.263 85.0702 282.076 85.1227C282.837 85.0869 283.597 85.2215 284.299 85.5166C285.002 85.8118 285.629 86.2601 286.137 86.8287C287.2 88.1538 287.737 89.824 287.646 91.5203C287.734 93.2225 287.207 94.8995 286.162 96.246C285.677 96.8276 285.065 97.2894 284.373 97.5957C283.68 97.9019 282.927 98.0443 282.17 98.0118C281.374 98.0428 280.583 97.875 279.868 97.5236C279.153 97.1721 278.537 96.648 278.076 95.9987V102.413H276.062V85.498H277.956V87.2296ZM279.014 88.0827C278.289 89.0993 277.934 90.3335 278.007 91.58C277.933 92.8279 278.298 94.0623 279.04 95.0689C279.375 95.486 279.804 95.8183 280.291 96.0391C280.779 96.2599 281.311 96.3629 281.846 96.3399C282.369 96.3608 282.889 96.2555 283.363 96.0327C283.837 95.81 284.25 95.4765 284.567 95.0603C285.275 94.0427 285.623 92.8179 285.557 91.58C285.63 90.3335 285.275 89.0993 284.55 88.0827C284.206 87.6866 283.78 87.3691 283.303 87.1515C282.825 86.9339 282.307 86.8213 281.782 86.8213C281.257 86.8213 280.739 86.9339 280.261 87.1515C279.784 87.3691 279.358 87.6866 279.014 88.0827Z" fill="#091717"/>
<path d="M300.921 97.6706C300.481 97.8328 300.016 97.9138 299.547 97.9095C299.306 97.9357 299.061 97.907 298.832 97.8254C298.603 97.7439 298.396 97.6116 298.225 97.4385C298.055 97.2654 297.925 97.0559 297.847 96.8258C297.769 96.5957 297.743 96.3508 297.773 96.1096C297.223 96.7384 296.541 97.238 295.776 97.5727C295.011 97.9075 294.181 98.069 293.346 98.0459C292.315 98.1012 291.3 97.7731 290.497 97.1247C290.139 96.8058 289.857 96.4099 289.674 95.9666C289.491 95.5234 289.411 95.0444 289.439 94.5656C289.439 92.3904 290.889 91.1536 293.773 90.7526L294.626 90.6588C295.504 90.6272 296.37 90.4424 297.185 90.1129C297.378 89.9609 297.53 89.7621 297.625 89.5352C297.721 89.3084 297.757 89.061 297.731 88.8163C297.731 87.4685 296.809 86.8032 294.958 86.8032C294.197 86.7467 293.438 86.9513 292.809 87.3832C292.545 87.626 292.333 87.9197 292.187 88.2467C292.04 88.5737 291.961 88.9271 291.956 89.2855H289.994C289.979 88.7036 290.098 88.1262 290.341 87.597C290.583 87.0679 290.943 86.6009 291.393 86.2317C292.466 85.4494 293.777 85.0636 295.103 85.1398C296.487 85.031 297.86 85.4552 298.942 86.3255C299.204 86.6206 299.383 86.9796 299.462 87.3662C299.572 87.6923 299.643 88.0301 299.675 88.3727C299.675 88.6286 299.675 89.021 299.675 89.5414C299.675 90.0617 299.675 91.0512 299.675 92.2625C299.675 93.4738 299.624 94.3865 299.624 94.9921C299.599 95.3126 299.661 95.6339 299.803 95.9219C299.879 96.0193 299.978 96.0956 300.092 96.1434C300.205 96.1913 300.329 96.209 300.452 96.1949C300.618 96.1883 300.784 96.1655 300.946 96.1267L300.921 97.6706ZM297.227 91.6995C297.038 91.7896 296.837 91.8528 296.63 91.8872L296.127 91.9981L295.504 92.0919L294.984 92.1516L294.02 92.2796C293.875 92.2796 293.585 92.3734 293.167 92.4843C292.871 92.5236 292.589 92.6352 292.347 92.8093C292.104 92.9834 291.908 93.2145 291.776 93.4823C291.555 93.8809 291.474 94.3426 291.546 94.793C291.619 95.2433 291.841 95.656 292.177 95.9646C292.69 96.3471 293.321 96.5373 293.96 96.502C294.883 96.502 295.781 96.2027 296.519 95.649C296.857 95.4306 297.137 95.1332 297.335 94.7825C297.533 94.4318 297.642 94.0382 297.654 93.6358V91.3753C297.522 91.4763 297.379 91.5621 297.227 91.6313V91.6995Z" fill="#091717"/>
<path d="M311.66 96.7494C310.657 97.6437 309.344 98.1118 308.001 98.0545C307.208 98.1006 306.415 97.9717 305.678 97.6768C304.941 97.382 304.278 96.9284 303.736 96.3484C302.673 95.0658 302.132 93.431 302.217 91.7678C302.122 90.0112 302.688 88.2826 303.804 86.9226C304.832 85.9069 306.184 85.2841 307.624 85.1625C309.065 85.0409 310.502 85.4283 311.686 86.2573C312.15 86.6616 312.529 87.154 312.802 87.7061C313.074 88.2581 313.234 88.8588 313.272 89.4731H311.191C310.824 87.6989 309.801 86.8203 308.112 86.8203C307.581 86.7991 307.052 86.9049 306.57 87.1289C306.088 87.3529 305.666 87.6887 305.339 88.1083C304.616 89.123 304.259 90.3529 304.324 91.5971C304.254 92.8409 304.596 94.0731 305.297 95.103C305.587 95.4592 305.944 95.7543 306.349 95.9713C306.753 96.1883 307.197 96.3229 307.654 96.3673C308.111 96.4118 308.572 96.3651 309.011 96.2301C309.45 96.0951 309.857 95.8744 310.21 95.5807C310.826 94.9519 311.213 94.1351 311.311 93.2605H313.349C313.232 94.5909 312.631 95.8322 311.66 96.7494Z" fill="#091717"/>
<path d="M320.64 98.1223C319.855 98.1615 319.07 98.0292 318.341 97.7346C317.612 97.4399 316.956 96.9901 316.418 96.4162C315.334 95.1116 314.788 93.4431 314.891 91.7502C314.81 90.014 315.368 88.3081 316.461 86.9563C316.961 86.3574 317.591 85.8808 318.304 85.5629C319.017 85.2451 319.792 85.0943 320.572 85.1223C321.371 85.0634 322.172 85.2067 322.901 85.5392C323.631 85.8717 324.264 86.3825 324.744 87.0245C325.699 88.4451 326.177 90.1333 326.108 91.8441V92.1256H316.921V92.2706C316.858 93.3822 317.224 94.4758 317.945 95.3244C318.302 95.7004 318.736 95.9944 319.218 96.1858C319.699 96.3773 320.217 96.4618 320.734 96.4333C321.484 96.4756 322.225 96.2588 322.833 95.8191C323.419 95.29 323.835 94.5981 324.027 93.8316H325.989C325.363 96.6864 323.581 98.1166 320.64 98.1223ZM322.961 87.7837C322.648 87.4553 322.268 87.1978 321.847 87.0286C321.426 86.8594 320.974 86.7824 320.521 86.8027C320.068 86.7905 319.618 86.872 319.198 87.0423C318.778 87.2126 318.398 87.4679 318.081 87.7922C317.397 88.5447 316.988 89.507 316.921 90.5219H324.027C323.996 89.5138 323.62 88.547 322.961 87.7837Z" fill="#091717"/>
<path d="M145.371 73.2822H342" stroke="#091717" stroke-width="0.298556" stroke-miterlimit="10"/>
</g>
</g>
<defs>
<clipPath id="clip0_972_21366">
<rect width="342" height="104.375" fill="white"/>
</clipPath>
</defs>
</svg>
