<svg width="671" height="205" viewBox="0 0 671 205" fill="none" xmlns="http://www.w3.org/2000/svg">
<g clip-path="url(#clip0_972_21333)">
<mask id="mask0_972_21333" style="mask-type:luminance" maskUnits="userSpaceOnUse" x="-2" y="-1" width="673" height="207">
<path d="M670.664 -0.970703H-1.57422V205.134H670.664V-0.970703Z" fill="white"/>
</mask>
<g mask="url(#mask0_972_21333)">
<path d="M363.626 111.161C355.492 118.971 344.335 122.876 330.154 122.876C314.779 122.876 302.394 117.788 293 107.613C283.605 97.4374 278.919 83.9648 278.941 67.1953C278.941 51.3072 283.678 38.1024 293.15 27.581C302.623 17.0595 315.259 11.7988 331.058 11.7988C343.654 11.7988 354.254 15.3692 362.856 22.5099C366.969 25.8307 370.349 29.9678 372.783 34.6601C375.217 39.3524 376.652 44.4983 376.998 49.773H354.103C353.203 44.4059 350.369 39.554 346.137 36.1331C341.651 32.7943 336.16 31.0879 330.572 31.2964C324.665 31.1164 318.887 33.0445 314.271 36.7356C309.953 40.2169 306.724 44.8635 304.966 50.1245C303.125 55.6945 302.215 61.53 302.272 67.3961C302.272 78.3304 304.804 87.0443 309.87 93.5379C312.24 96.6793 315.331 99.2053 318.881 100.903C322.431 102.601 326.338 103.422 330.271 103.295C344.463 103.295 352.552 95.351 354.538 79.4628H377.634C376.429 92.7848 371.76 103.351 363.626 111.161Z" fill="#091717"/>
<path d="M463.104 120.433H443.02V109.488C440.342 113.652 436.628 117.049 432.242 119.346C427.856 121.643 422.948 122.762 418 122.592C409.565 122.592 402.988 120.288 398.268 115.68C393.548 111.072 391.183 104.266 391.172 95.262V43.5977H412.477V87.5299C412.441 89.8396 412.564 92.149 412.845 94.4419C413.122 96.2672 413.645 98.0464 414.402 99.7305C415.173 101.498 416.584 102.909 418.351 103.68C420.595 104.599 423.008 105.033 425.431 104.952C436.588 104.952 442.167 97.6999 442.167 83.1952V43.5977H463.171L463.104 120.433Z" fill="#091717"/>
<path d="M500.174 52.9701C506.132 45.5393 514.227 41.8183 524.458 41.8071C534.689 41.796 542.728 45.517 548.575 52.9701C554.466 60.4232 557.411 69.8568 557.411 81.2708C557.411 93.544 554.26 103.496 547.956 111.128C545.005 114.801 541.244 117.742 536.967 119.719C532.69 121.697 528.013 122.657 523.303 122.525C512.693 122.525 504.654 118.62 499.187 110.81L499.337 120.483H479.254V14.4102H500.174V52.9701ZM504.425 64.3004C501.078 68.5179 499.404 74.2528 499.404 81.5051C499.404 88.9583 501.039 94.8159 504.308 99.078C505.883 101.16 507.938 102.829 510.299 103.942C512.66 105.056 515.256 105.58 517.864 105.471C520.427 105.536 522.966 104.974 525.262 103.833C527.557 102.693 529.539 101.009 531.035 98.9274C534.383 94.5649 536.056 88.7072 536.056 81.3545C536.056 74.3142 534.383 68.6518 531.035 64.3674C529.515 62.3223 527.524 60.6735 525.231 59.5607C522.939 58.4478 520.412 57.9037 517.864 57.9742C515.283 57.886 512.717 58.4138 510.38 59.5139C508.043 60.614 506.002 62.2548 504.425 64.3004Z" fill="#091717"/>
<path d="M629.381 115.813C622.683 120.469 614.674 122.867 606.52 122.659C594.704 122.659 585.22 118.988 578.068 111.646C570.916 104.305 567.318 94.5754 567.273 82.4584C567.273 70.5423 570.9 60.7127 578.152 52.9695C581.673 49.1691 585.966 46.1664 590.743 44.163C595.521 42.1597 600.672 41.2021 605.85 41.3546C617.465 41.3546 626.698 45.3043 633.548 53.2038C640.399 61.1032 643.824 71.7976 643.824 85.2868V87.3789H588.629C588.729 94.0733 590.302 99.0941 593.482 102.558C595.159 104.345 597.208 105.742 599.484 106.65C601.76 107.558 604.207 107.955 606.653 107.814C614.107 107.814 619.317 104.087 622.285 96.6339H642.536C640.501 104.356 635.852 111.134 629.381 115.813ZM617.398 61.5383C615.949 59.9121 614.153 58.6329 612.142 57.7956C610.131 56.9583 607.958 56.5844 605.783 56.7016C603.646 56.6472 601.519 57.0288 599.534 57.8229C597.549 58.6171 595.746 59.8072 594.235 61.3208C590.987 64.773 589.035 69.2441 588.712 73.9732H622.369C622.056 69.4069 620.31 65.0555 617.381 61.5383H617.398Z" fill="#091717"/>
<path d="M238.372 204.783H6.27612C5.4507 204.787 4.6326 204.628 3.86915 204.314C3.1057 204 2.41207 203.538 1.8284 202.955C1.24473 202.371 0.782614 201.677 0.468786 200.914C0.154957 200.15 -0.00434761 199.332 9.02307e-05 198.507V6.27612C-0.00434761 5.4507 0.154957 4.6326 0.468786 3.86915C0.782614 3.1057 1.24473 2.41207 1.8284 1.8284C2.41207 1.24473 3.1057 0.782614 3.86915 0.468786C4.6326 0.154957 5.4507 -0.00434761 6.27612 9.02307e-05H238.372C239.198 -0.00434761 240.016 0.154957 240.779 0.468786C241.543 0.782614 242.236 1.24473 242.82 1.8284C243.404 2.41207 243.866 3.1057 244.18 3.86915C244.493 4.6326 244.653 5.4507 244.648 6.27612V198.356C244.666 200.04 244.015 201.662 242.839 202.867C241.662 204.072 240.056 204.761 238.372 204.783Z" fill="#091717"/>
<path d="M125.388 14.5938H119.547V190.038H125.388V14.5938Z" fill="#F7F7F7"/>
<path d="M119.546 71.3799H35.1797V77.2208H119.546V71.3799Z" fill="#F7F7F7"/>
<path d="M209.601 127.579H125.234V133.42H209.601V127.579Z" fill="#F7F7F7"/>
<path d="M324.982 162.457H307.594V172.767H322.924V176.432H307.594V191.712H303.242V158.642H324.999L324.982 162.457Z" fill="#091717"/>
<path d="M348.095 170.356C350.252 172.933 351.337 176.241 351.125 179.595C351.336 183.02 350.255 186.4 348.095 189.067C347.012 190.213 345.691 191.106 344.225 191.684C342.759 192.263 341.183 192.512 339.61 192.415C338.021 192.501 336.431 192.247 334.947 191.67C333.464 191.093 332.121 190.206 331.008 189.067C328.807 186.491 327.691 183.161 327.895 179.779C327.709 176.375 328.842 173.03 331.058 170.44C332.165 169.299 333.505 168.409 334.986 167.832C336.468 167.254 338.056 167.002 339.644 167.093C341.204 166.994 342.768 167.235 344.227 167.798C345.686 168.362 347.006 169.234 348.095 170.356ZM334.037 172.9C332.57 174.883 331.842 177.316 331.978 179.779C331.837 182.247 332.552 184.689 334.004 186.691C334.686 187.514 335.552 188.166 336.531 188.596C337.51 189.026 338.576 189.222 339.644 189.168C340.687 189.215 341.727 189.012 342.677 188.575C343.626 188.139 344.457 187.481 345.1 186.657C346.522 184.644 347.218 182.207 347.074 179.745C347.204 177.312 346.496 174.907 345.066 172.934C344.384 172.138 343.538 171.5 342.586 171.062C341.635 170.624 340.599 170.398 339.552 170.398C338.504 170.398 337.469 170.624 336.517 171.062C335.565 171.5 334.719 172.138 334.037 172.934V172.9Z" fill="#091717"/>
<path d="M375.693 191.712H372.028V187.963C371.141 189.342 369.916 190.471 368.468 191.242C367.021 192.012 365.4 192.399 363.76 192.364C362.685 192.435 361.607 192.286 360.591 191.926C359.575 191.567 358.644 191.004 357.852 190.272C357.117 189.46 356.553 188.508 356.194 187.472C355.835 186.437 355.687 185.341 355.76 184.247V167.746H359.71V183.126C359.61 184.633 359.991 186.134 360.798 187.41C361.29 187.95 361.903 188.365 362.587 188.622C363.271 188.878 364.006 188.967 364.731 188.883C369.406 188.883 371.743 186.005 371.743 180.247V167.695H375.693V191.712Z" fill="#091717"/>
<path d="M385.349 171.411C386.217 170.035 387.428 168.909 388.862 168.143C390.297 167.377 391.907 166.998 393.533 167.042C394.651 166.939 395.778 167.083 396.834 167.465C397.89 167.847 398.848 168.457 399.641 169.252C401.009 171.122 401.673 173.416 401.516 175.728V191.661H397.566V177.603C397.581 176.681 397.542 175.759 397.449 174.841C397.353 174.104 397.156 173.383 396.863 172.699C396.577 171.957 396.013 171.357 395.29 171.026C394.376 170.659 393.396 170.488 392.411 170.524C387.859 170.524 385.583 173.402 385.583 179.159V191.695H381.684V167.745H385.399L385.349 171.411Z" fill="#091717"/>
<path d="M429.064 191.712H425.348V188.147C424.572 189.528 423.414 190.656 422.013 191.395C420.612 192.134 419.027 192.453 417.449 192.315C415.933 192.392 414.418 192.132 413.014 191.553C411.611 190.974 410.353 190.091 409.332 188.967C407.223 186.359 406.155 183.062 406.336 179.712C406.213 176.467 407.205 173.277 409.148 170.675C410.114 169.469 411.356 168.514 412.768 167.888C414.181 167.261 415.723 166.983 417.265 167.077C418.798 166.998 420.325 167.315 421.7 167.998C423.075 168.681 424.251 169.707 425.114 170.976V158.642H429.064V191.712ZM412.411 172.901C411.001 174.838 410.303 177.203 410.436 179.595C410.305 182.07 411.013 184.517 412.445 186.541C413.077 187.372 413.9 188.04 414.843 188.488C415.786 188.936 416.823 189.152 417.867 189.118C418.898 189.164 419.925 188.963 420.862 188.533C421.799 188.102 422.62 187.453 423.256 186.641C424.645 184.632 425.328 182.218 425.198 179.779C425.3 177.412 424.663 175.072 423.373 173.085C422.746 172.196 421.901 171.483 420.919 171.015C419.938 170.546 418.852 170.337 417.767 170.407C416.74 170.368 415.719 170.574 414.788 171.008C413.857 171.441 413.042 172.09 412.411 172.901Z" fill="#091717"/>
<path d="M445.028 192.515C443.474 192.604 441.918 192.351 440.472 191.772C439.026 191.194 437.725 190.305 436.66 189.168C434.534 186.608 433.463 183.334 433.665 180.013C433.505 176.606 434.6 173.26 436.744 170.607C437.725 169.432 438.962 168.497 440.361 167.874C441.759 167.25 443.281 166.954 444.811 167.009C446.381 166.895 447.954 167.177 449.387 167.829C450.82 168.481 452.066 169.483 453.012 170.741C454.874 173.533 455.806 176.843 455.673 180.197V180.749H437.732V181.034C437.602 183.213 438.315 185.358 439.723 187.025C440.424 187.761 441.277 188.337 442.221 188.712C443.166 189.088 444.181 189.255 445.196 189.201C446.666 189.284 448.12 188.859 449.313 187.996C450.464 186.958 451.28 185.6 451.656 184.097H455.522C454.272 189.698 450.775 192.504 445.028 192.515ZM449.581 172.231C448.967 171.586 448.222 171.081 447.396 170.749C446.57 170.417 445.683 170.266 444.794 170.306C443.906 170.282 443.022 170.442 442.198 170.776C441.374 171.11 440.628 171.611 440.008 172.247C438.671 173.727 437.869 175.613 437.732 177.603H451.673C451.613 175.625 450.874 173.728 449.581 172.231Z" fill="#091717"/>
<path d="M472.428 171.277C470.966 171.129 469.49 171.312 468.11 171.813C467.27 172.143 466.514 172.658 465.901 173.319C465.329 174.012 464.881 174.799 464.578 175.646C464.253 176.55 464.029 177.487 463.909 178.44C463.796 179.485 463.74 180.536 463.742 181.587V191.629H459.809V167.746H463.558V172.901C464.221 171.119 465.444 169.601 467.043 168.572C468.642 167.543 470.531 167.06 472.428 167.194V171.277Z" fill="#091717"/>
<path d="M489.245 174.758C488.994 171.846 487.053 170.39 483.387 170.39C482.139 170.318 480.898 170.621 479.823 171.26C479.419 171.511 479.087 171.861 478.858 172.277C478.629 172.693 478.512 173.162 478.517 173.637C478.519 173.912 478.547 174.187 478.601 174.457C478.667 174.708 478.787 174.942 478.952 175.143L479.421 175.678C479.62 175.874 479.86 176.023 480.124 176.114L480.86 176.465C481.157 176.608 481.473 176.71 481.797 176.766L482.751 177.001L483.839 177.252C484.375 177.386 484.726 177.469 484.877 177.486C486.032 177.737 486.885 177.938 487.454 178.088C488.261 178.337 489.054 178.628 489.831 178.959C490.658 179.273 491.431 179.713 492.124 180.264C492.719 180.78 493.203 181.412 493.546 182.122C493.97 182.944 494.183 183.858 494.165 184.783C494.202 185.867 493.974 186.944 493.501 187.921C493.029 188.897 492.327 189.745 491.454 190.389C489.35 191.887 486.803 192.63 484.224 192.498C481.554 192.661 478.908 191.905 476.726 190.356C475.832 189.597 475.116 188.65 474.63 187.583C474.144 186.515 473.9 185.353 473.915 184.18H477.814C478.026 187.528 480.196 189.201 484.325 189.201C485.821 189.273 487.303 188.888 488.576 188.097C489.084 187.803 489.506 187.381 489.8 186.873C490.094 186.365 490.249 185.788 490.249 185.201C490.259 184.829 490.189 184.459 490.045 184.116C489.901 183.772 489.685 183.463 489.412 183.21C488.884 182.699 488.25 182.31 487.555 182.072C486.868 181.837 485.881 181.57 484.626 181.252L484.207 181.151L482.417 180.766C481.496 180.565 480.843 180.398 480.442 180.281L478.768 179.695C478.168 179.512 477.602 179.229 477.095 178.858C476.66 178.51 476.246 178.135 475.856 177.737C475.408 177.303 475.08 176.761 474.902 176.164C474.706 175.496 474.61 174.802 474.618 174.105C474.584 173.106 474.793 172.113 475.227 171.212C475.661 170.311 476.308 169.529 477.111 168.934C479.072 167.581 481.427 166.916 483.806 167.043C486.261 166.927 488.686 167.627 490.701 169.034C491.577 169.689 492.279 170.549 492.746 171.538C493.212 172.527 493.43 173.615 493.379 174.708L489.245 174.758Z" fill="#091717"/>
<path d="M531.42 168.348C530.951 163.885 528.212 161.654 523.203 161.654C521.25 161.536 519.311 162.04 517.663 163.093C517.033 163.554 516.526 164.164 516.188 164.867C515.849 165.57 515.689 166.347 515.722 167.127C515.704 167.696 515.795 168.264 515.989 168.8C516.2 169.281 516.528 169.701 516.943 170.022C517.357 170.345 517.787 170.647 518.232 170.926C518.828 171.255 519.464 171.508 520.123 171.679L522.215 172.214L524.675 172.733C526.048 173.018 527.169 173.269 528.023 173.503C529.119 173.808 530.192 174.188 531.236 174.641C532.296 175.049 533.288 175.613 534.181 176.315C534.967 177.04 535.613 177.902 536.089 178.859C536.637 179.966 536.912 181.188 536.893 182.423C536.961 184.539 536.272 186.61 534.951 188.264C533.723 189.808 532.08 190.969 530.215 191.611C528.215 192.255 526.124 192.571 524.023 192.549C520.465 192.728 516.953 191.689 514.065 189.603C512.797 188.548 511.799 187.208 511.15 185.692C510.501 184.177 510.221 182.529 510.333 180.884H514.55C514.496 182.063 514.726 183.238 515.221 184.31C515.716 185.382 516.462 186.319 517.395 187.043C519.469 188.412 521.925 189.086 524.408 188.967C526.436 189.026 528.443 188.535 530.215 187.545C531.009 187.077 531.656 186.397 532.082 185.58C532.508 184.764 532.696 183.844 532.625 182.925C532.651 182.038 532.425 181.162 531.972 180.398C531.462 179.66 530.754 179.08 529.93 178.725C529.025 178.297 528.092 177.934 527.136 177.637C526.215 177.352 524.993 177.051 523.47 176.716L523.002 176.616C520.725 176.172 518.487 175.551 516.307 174.758C514.838 174.234 513.575 173.252 512.704 171.956C511.834 170.661 511.401 169.121 511.471 167.562C511.385 166.177 511.664 164.794 512.281 163.552C512.898 162.31 513.83 161.251 514.985 160.482C517.511 158.806 520.49 157.947 523.521 158.022C526.631 157.855 529.703 158.779 532.207 160.633C533.325 161.584 534.215 162.774 534.811 164.115C535.408 165.457 535.696 166.915 535.654 168.382L531.42 168.348Z" fill="#091717"/>
<path d="M545.344 171.143C546.194 169.79 547.394 168.692 548.817 167.964C550.24 167.236 551.833 166.907 553.428 167.01C554.921 166.939 556.411 167.203 557.789 167.783C559.168 168.362 560.399 169.241 561.394 170.357C563.48 172.957 564.534 176.234 564.356 179.562C564.528 182.901 563.494 186.192 561.444 188.834C560.493 189.975 559.292 190.881 557.933 191.482C556.575 192.082 555.096 192.362 553.612 192.298C552.05 192.359 550.498 192.03 549.095 191.34C547.693 190.65 546.484 189.622 545.579 188.348V200.934H541.629V167.746H545.344V171.143ZM547.42 172.817C545.997 174.812 545.3 177.233 545.445 179.679C545.299 182.127 546.016 184.549 547.47 186.524C548.128 187.342 548.969 187.994 549.925 188.428C550.882 188.861 551.927 189.063 552.976 189.018C554.002 189.059 555.023 188.852 555.952 188.415C556.882 187.978 557.692 187.324 558.315 186.507C559.704 184.511 560.387 182.108 560.256 179.679C560.401 177.233 559.704 174.812 558.281 172.817C557.606 172.04 556.771 171.417 555.835 170.99C554.898 170.563 553.88 170.342 552.85 170.342C551.821 170.342 550.803 170.563 549.866 170.99C548.93 171.417 548.095 172.04 547.42 172.817Z" fill="#091717"/>
<path d="M590.401 191.628C589.539 191.946 588.626 192.105 587.707 192.097C587.232 192.148 586.753 192.092 586.304 191.932C585.854 191.772 585.447 191.512 585.112 191.173C584.777 190.833 584.524 190.422 584.37 189.97C584.217 189.519 584.167 189.039 584.225 188.565C583.147 189.799 581.809 190.779 580.307 191.436C578.806 192.093 577.178 192.41 575.539 192.364C573.517 192.473 571.526 191.829 569.95 190.557C569.247 189.931 568.695 189.154 568.335 188.285C567.976 187.415 567.818 186.475 567.874 185.536C567.874 181.268 570.719 178.842 576.376 178.055L578.05 177.871C579.773 177.809 581.472 177.446 583.071 176.8C583.45 176.501 583.748 176.111 583.935 175.666C584.123 175.221 584.194 174.736 584.142 174.256C584.142 171.612 582.334 170.306 578.703 170.306C577.208 170.195 575.721 170.597 574.485 171.444C573.968 171.92 573.553 172.497 573.265 173.138C572.977 173.78 572.823 174.473 572.811 175.176H568.962C568.934 174.035 569.167 172.902 569.643 171.864C570.118 170.825 570.824 169.909 571.707 169.185C573.813 167.65 576.386 166.893 578.987 167.043C581.702 166.829 584.397 167.661 586.518 169.369C587.032 169.948 587.384 170.652 587.539 171.411C587.755 172.051 587.895 172.713 587.958 173.386C587.958 173.888 587.958 174.658 587.958 175.678C587.958 176.699 587.958 178.641 587.958 181.017C587.958 183.394 587.857 185.185 587.857 186.373C587.807 187.002 587.928 187.632 588.209 188.197C588.357 188.388 588.552 188.538 588.774 188.632C588.997 188.725 589.24 188.76 589.481 188.733C589.808 188.72 590.133 188.675 590.451 188.599L590.401 191.628ZM583.154 179.913C582.783 180.09 582.389 180.213 581.983 180.281L580.995 180.498L579.774 180.683L578.753 180.8L576.862 181.051C576.577 181.051 576.008 181.235 575.188 181.452C574.607 181.53 574.055 181.749 573.579 182.09C573.103 182.432 572.719 182.885 572.46 183.411C572.025 184.193 571.866 185.099 572.009 185.982C572.151 186.866 572.587 187.675 573.247 188.281C574.253 189.031 575.491 189.404 576.744 189.335C578.555 189.335 580.317 188.748 581.765 187.661C582.429 187.233 582.978 186.65 583.366 185.961C583.754 185.273 583.968 184.501 583.991 183.712V179.277C583.732 179.475 583.451 179.643 583.154 179.779V179.913Z" fill="#091717"/>
<path d="M611.469 189.821C609.5 191.576 606.924 192.494 604.289 192.382C602.734 192.472 601.178 192.219 599.732 191.641C598.286 191.062 596.985 190.172 595.921 189.035C593.837 186.518 592.774 183.31 592.942 180.047C592.755 176.601 593.866 173.209 596.055 170.541C598.073 168.548 600.725 167.326 603.551 167.088C606.376 166.849 609.196 167.609 611.519 169.236C612.43 170.029 613.174 170.995 613.708 172.078C614.243 173.161 614.557 174.34 614.632 175.545H610.549C609.829 172.064 607.821 170.34 604.507 170.34C603.465 170.299 602.427 170.506 601.481 170.946C600.536 171.385 599.708 172.044 599.068 172.867C597.649 174.858 596.947 177.271 597.076 179.713C596.938 182.153 597.609 184.57 598.984 186.591C599.552 187.29 600.254 187.869 601.048 188.295C601.841 188.72 602.712 188.984 603.608 189.072C604.505 189.159 605.41 189.067 606.271 188.802C607.132 188.537 607.931 188.104 608.624 187.528C609.832 186.294 610.592 184.692 610.783 182.976H614.783C614.553 185.586 613.374 188.022 611.469 189.821Z" fill="#091717"/>
<path d="M629.093 192.516C627.552 192.592 626.013 192.333 624.582 191.755C623.152 191.177 621.864 190.294 620.809 189.168C618.683 186.609 617.612 183.335 617.813 180.014C617.653 176.607 618.749 173.26 620.893 170.608C621.874 169.433 623.111 168.498 624.509 167.874C625.907 167.251 627.429 166.955 628.959 167.01C630.527 166.894 632.099 167.175 633.529 167.828C634.96 168.48 636.203 169.482 637.143 170.742C639.018 173.529 639.956 176.841 639.821 180.198V180.75H621.796V181.035C621.671 183.216 622.39 185.361 623.805 187.026C624.505 187.764 625.357 188.341 626.302 188.716C627.247 189.092 628.262 189.258 629.277 189.202C630.747 189.285 632.201 188.859 633.394 187.997C634.546 186.959 635.361 185.601 635.737 184.097H639.587C638.359 189.698 634.862 192.504 629.093 192.516ZM633.645 172.231C633.031 171.587 632.287 171.082 631.461 170.75C630.635 170.418 629.748 170.267 628.859 170.307C627.97 170.283 627.086 170.443 626.263 170.777C625.439 171.111 624.693 171.612 624.072 172.248C622.73 173.724 621.927 175.612 621.796 177.604H635.737C635.677 175.626 634.939 173.729 633.645 172.231Z" fill="#091717"/>
<path d="M285.215 143.779H670.998" stroke="#091717" stroke-width="0.585763" stroke-miterlimit="10"/>
</g>
</g>
<defs>
<clipPath id="clip0_972_21333">
<rect width="671" height="204.783" fill="white"/>
</clipPath>
</defs>
</svg>
