<svg width="272" height="228" viewBox="0 0 272 228" fill="none" xmlns="http://www.w3.org/2000/svg">
<path d="M265.022 228H6.97779C6.06008 228.005 5.15051 227.827 4.30171 227.478C3.45291 227.129 2.68174 226.614 2.03282 225.964C1.38389 225.314 0.870109 224.542 0.521195 223.692C0.172281 222.842 -0.00483367 221.931 0.000100318 221.012V6.98767C-0.00483367 6.06867 0.172281 5.15781 0.521195 4.30781C0.870109 3.45781 1.38389 2.68554 2.03282 2.0357C2.68174 1.38585 3.45291 0.871342 4.30171 0.521934C5.15051 0.172525 6.06008 -0.00484052 6.97779 0.00010046H265.022C265.94 -0.00484052 266.849 0.172525 267.698 0.521934C268.547 0.871342 269.318 1.38585 269.967 2.0357C270.616 2.68554 271.13 3.45781 271.478 4.30781C271.827 5.15781 272.005 6.06867 272 6.98767V220.845C272.019 222.719 271.296 224.526 269.988 225.867C268.68 227.208 266.894 227.975 265.022 228Z" fill="#091717"/>
<path opacity="0.3" d="M139.002 14H132.516L133.002 198H139.002V14Z" fill="#091717"/>
<path d="M139 74H132.5L133 211H139V74Z" fill="#333333"/>
<path d="M132.986 74L44 74V80H133L132.986 74Z" fill="#333333"/>
<path opacity="0.3" d="M226.998 132.482H138.484V138.606H226.998V132.482Z" fill="#091717"/>
<path d="M31.96 142.76V144.4H24.48V148.84H31.08V150.42H24.48V157H22.6V142.76H31.96ZM38.2844 146.38C39.8444 146.38 41.0444 146.86 41.9244 147.82C42.7844 148.76 43.2244 150.08 43.2244 151.78C43.2244 153.54 42.7844 154.9 41.9244 155.86C41.0444 156.84 39.8244 157.32 38.2644 157.32C36.6844 157.32 35.4444 156.84 34.5644 155.88C33.6644 154.92 33.2244 153.6 33.2244 151.88C33.2244 150.2 33.6644 148.86 34.5844 147.86C35.4844 146.88 36.7244 146.38 38.2844 146.38ZM38.2444 147.82C37.2444 147.82 36.4444 148.18 35.8644 148.9C35.2644 149.64 34.9844 150.62 34.9844 151.84C34.9844 153.12 35.2644 154.1 35.8444 154.82C36.4244 155.54 37.2444 155.88 38.2844 155.88C39.2844 155.88 40.0644 155.52 40.6244 154.8C41.1844 154.08 41.4844 153.1 41.4844 151.82C41.4844 150.6 41.1844 149.62 40.6044 148.9C40.0244 148.18 39.2444 147.82 38.2444 147.82ZM53.8088 146.68L53.7888 157H52.2088V155.38C51.3288 156.66 50.1488 157.28 48.6488 157.28C47.5688 157.28 46.7088 156.98 46.1088 156.38C45.5088 155.78 45.2088 154.92 45.2088 153.78V146.68H46.9087V153.32C46.9087 154.14 47.0688 154.76 47.3888 155.18C47.7088 155.6 48.2688 155.8 49.0888 155.8C51.0888 155.8 52.1088 154.56 52.1088 152.08V146.68H53.8088ZM57.962 146.68V148.28C58.802 147.04 59.982 146.4 61.482 146.4C62.682 146.4 63.562 146.72 64.102 147.36C64.642 148 64.922 148.92 64.922 150.14V157H63.222V150.92C63.222 150.42 63.202 150.02 63.162 149.74C63.122 149.46 63.042 149.14 62.922 148.82C62.782 148.5 62.562 148.26 62.242 148.1C61.922 147.96 61.502 147.88 61.002 147.88C59.042 147.88 58.062 149.12 58.062 151.6V157H56.362V146.68H57.962ZM76.7753 142.76V157H75.1753V155.48C74.5153 156.68 73.3753 157.28 71.7753 157.28C70.2953 157.28 69.1353 156.8 68.2753 155.82C67.4153 154.84 66.9953 153.5 66.9953 151.82C66.9953 150.26 67.3953 148.98 68.1953 147.94C68.9953 146.9 70.1753 146.38 71.6953 146.38C73.1753 146.38 74.2953 146.94 75.0753 148.06V142.76H76.7753ZM71.9153 147.84C70.9353 147.84 70.1553 148.2 69.5953 148.9C69.0353 149.62 68.7553 150.58 68.7553 151.78C68.7553 153.04 69.0353 154.04 69.6153 154.78C70.1953 155.52 70.9753 155.88 71.9553 155.88C72.9353 155.88 73.7153 155.54 74.2753 154.82C74.8353 154.1 75.1153 153.12 75.1153 151.84C75.1153 150.72 74.8353 149.76 74.3153 149C73.7953 148.24 72.9953 147.84 71.9153 147.84ZM88.1508 153.74C87.6308 156.14 86.1308 157.34 83.6508 157.34C82.1308 157.34 80.9308 156.88 80.0708 155.92C79.2108 154.98 78.7908 153.66 78.7908 151.98C78.7908 150.32 79.2308 148.98 80.1108 147.94C80.9908 146.9 82.1508 146.38 83.5908 146.38C85.1708 146.38 86.3508 146.92 87.1108 148C87.8708 149.08 88.2708 150.42 88.2708 152.06V152.3H80.5108L80.4908 152.42C80.4908 153.52 80.7708 154.38 81.3508 155C81.9108 155.64 82.7108 155.94 83.7108 155.94C84.4508 155.94 85.0308 155.78 85.4708 155.42C85.9108 155.08 86.2508 154.52 86.4908 153.74H88.1508ZM86.5108 150.92C86.4308 149.94 86.1308 149.18 85.6108 148.62C85.0908 148.06 84.3908 147.78 83.5508 147.78C82.7108 147.78 82.0308 148.06 81.4908 148.62C80.9308 149.18 80.6108 149.96 80.5108 150.92H86.5108ZM95.453 146.44L95.433 148.22C95.313 148.2 95.173 148.2 94.993 148.2C94.453 148.2 93.973 148.28 93.573 148.44C93.173 148.6 92.873 148.82 92.633 149.08C92.393 149.36 92.213 149.68 92.053 150.08C91.913 150.48 91.813 150.88 91.773 151.28C91.733 151.68 91.713 152.14 91.713 152.64V157H90.013V146.68H91.633V148.9C92.313 147.26 93.573 146.44 95.453 146.44ZM104.393 149.68H102.693C102.573 148.44 101.733 147.8 100.173 147.8C99.5131 147.8 98.9931 147.94 98.6331 148.18C98.2531 148.44 98.0731 148.78 98.0731 149.2C98.0731 149.32 98.0731 149.44 98.1131 149.56C98.1331 149.68 98.1731 149.78 98.2531 149.86C98.3331 149.94 98.3931 150.02 98.4531 150.08C98.5131 150.16 98.6131 150.22 98.7531 150.28C98.8931 150.34 98.9931 150.38 99.0731 150.42C99.1531 150.46 99.2731 150.52 99.4731 150.56C99.6731 150.6 99.8131 150.64 99.8931 150.66C99.9731 150.68 100.113 150.72 100.353 150.76C100.593 150.82 100.733 150.86 100.813 150.86C101.293 150.98 101.673 151.06 101.913 151.12C102.153 151.2 102.493 151.32 102.933 151.5C103.373 151.68 103.693 151.86 103.933 152.06C104.153 152.26 104.353 152.52 104.533 152.86C104.713 153.2 104.813 153.58 104.813 154C104.813 155 104.413 155.82 103.633 156.42C102.853 157.02 101.813 157.32 100.533 157.32C99.1331 157.32 98.0531 157.02 97.2931 156.4C96.5331 155.8 96.1331 154.9 96.0931 153.74H97.7731C97.8531 155.2 98.7931 155.92 100.573 155.92C101.333 155.92 101.933 155.78 102.393 155.46C102.853 155.14 103.093 154.72 103.093 154.2C103.093 153.86 102.973 153.58 102.733 153.34C102.493 153.12 102.213 152.96 101.933 152.86C101.633 152.76 101.213 152.64 100.673 152.5C100.593 152.5 100.533 152.48 100.493 152.46C100.373 152.44 100.113 152.38 99.7131 152.3C99.3131 152.22 99.0331 152.14 98.8731 152.08C98.6931 152.04 98.4331 151.96 98.1131 151.84C97.7931 151.72 97.5531 151.6 97.3931 151.48C97.2331 151.36 97.0531 151.2 96.8531 151C96.6531 150.8 96.5331 150.58 96.4531 150.32C96.3731 150.06 96.3331 149.76 96.3331 149.42C96.3331 148.5 96.6731 147.76 97.3931 147.2C98.1131 146.66 99.0731 146.38 100.273 146.38C101.473 146.38 102.473 146.68 103.233 147.24C103.993 147.82 104.393 148.64 104.393 149.68Z" fill="#091717"/>
</svg>
