<svg width="272" height="228" viewBox="0 0 272 228" fill="none" xmlns="http://www.w3.org/2000/svg">
<path d="M265.022 228H6.97779C6.06008 228.005 5.15052 227.827 4.30172 227.478C3.45292 227.129 2.68174 226.614 2.03282 225.964C1.38389 225.314 0.870109 224.542 0.521195 223.692C0.172281 222.842 -0.00483367 221.931 0.000100318 221.012V6.98767C-0.00483367 6.06867 0.172281 5.15781 0.521195 4.30781C0.870109 3.45781 1.38389 2.68554 2.03282 2.0357C2.68174 1.38585 3.45292 0.871342 4.30172 0.521934C5.15052 0.172525 6.06008 -0.00484052 6.97779 0.00010046H265.022C265.94 -0.00484052 266.849 0.172525 267.698 0.521934C268.547 0.871342 269.318 1.38585 269.967 2.0357C270.616 2.68554 271.13 3.45781 271.479 4.30781C271.827 5.15781 272.005 6.06867 272 6.98767V220.845C272.019 222.719 271.296 224.526 269.988 225.867C268.68 227.208 266.894 227.975 265.022 228Z" fill="#091717"/>
<path opacity="0.5" d="M141 80H134L134.538 210H141V80Z" fill="white"/>
<path d="M141 14H135L135.45 80H141V14Z" fill="white"/>
<path d="M135.5 74H46V80H135.5V74Z" fill="white"/>
<path opacity="0.5" d="M229 132H141V139H229V132Z" fill="white"/>
<path d="M30.58 32.76H36.84C40.02 32.76 41.62 34.08 41.62 36.7C41.62 37.54 41.38 38.26 40.94 38.9C40.5 39.54 39.9 39.96 39.18 40.16C39.66 40.28 40.04 40.42 40.34 40.62C40.62 40.82 40.84 41.1 40.98 41.46C41.1 41.82 41.2 42.14 41.24 42.42C41.28 42.7 41.3 43.12 41.34 43.66C41.34 43.72 41.34 43.86 41.36 44.06C41.36 44.26 41.38 44.4 41.38 44.48C41.38 44.56 41.38 44.68 41.4 44.86C41.42 45.06 41.44 45.2 41.46 45.28C41.46 45.38 41.48 45.5 41.52 45.66C41.54 45.82 41.58 45.96 41.62 46.06C41.66 46.16 41.7 46.28 41.76 46.4C41.8 46.52 41.86 46.64 41.94 46.74C42 46.84 42.08 46.92 42.16 47H40C39.9 46.88 39.82 46.7 39.76 46.5C39.7 46.3 39.66 46.08 39.64 45.8C39.6 45.52 39.58 45.3 39.58 45.14C39.56 44.98 39.54 44.72 39.54 44.4C39.52 44.08 39.52 43.9 39.52 43.86C39.44 42.66 39.2 41.84 38.76 41.44C38.32 41.04 37.48 40.84 36.2 40.84H32.46V47H30.58V32.76ZM32.46 34.36V39.34H36C36.44 39.34 36.8 39.34 37.1 39.3C37.4 39.28 37.74 39.22 38.1 39.12C38.46 39.04 38.74 38.9 38.96 38.72C39.18 38.56 39.36 38.3 39.52 37.98C39.66 37.66 39.74 37.28 39.74 36.82C39.74 35.86 39.44 35.22 38.86 34.88C38.28 34.54 37.5 34.36 36.5 34.36H32.46ZM52.7914 43.74C52.2714 46.14 50.7714 47.34 48.2914 47.34C46.7714 47.34 45.5714 46.88 44.7114 45.92C43.8514 44.98 43.4314 43.66 43.4314 41.98C43.4314 40.32 43.8714 38.98 44.7514 37.94C45.6314 36.9 46.7914 36.38 48.2314 36.38C49.8114 36.38 50.9914 36.92 51.7514 38C52.5114 39.08 52.9114 40.42 52.9114 42.06V42.3H45.1514L45.1314 42.42C45.1314 43.52 45.4114 44.38 45.9914 45C46.5514 45.64 47.3514 45.94 48.3514 45.94C49.0914 45.94 49.6714 45.78 50.1114 45.42C50.5514 45.08 50.8914 44.52 51.1314 43.74H52.7914ZM51.1514 40.92C51.0714 39.94 50.7714 39.18 50.2514 38.62C49.7314 38.06 49.0314 37.78 48.1914 37.78C47.3514 37.78 46.6714 38.06 46.1314 38.62C45.5714 39.18 45.2514 39.96 45.1514 40.92H51.1514ZM62.3736 39.68H60.6736C60.5536 38.44 59.7136 37.8 58.1536 37.8C57.4936 37.8 56.9736 37.94 56.6136 38.18C56.2336 38.44 56.0536 38.78 56.0536 39.2C56.0536 39.32 56.0536 39.44 56.0936 39.56C56.1136 39.68 56.1536 39.78 56.2336 39.86C56.3136 39.94 56.3736 40.02 56.4336 40.08C56.4936 40.16 56.5936 40.22 56.7336 40.28C56.8736 40.34 56.9736 40.38 57.0536 40.42C57.1336 40.46 57.2536 40.52 57.4536 40.56C57.6536 40.6 57.7936 40.64 57.8736 40.66C57.9536 40.68 58.0936 40.72 58.3336 40.76C58.5736 40.82 58.7136 40.86 58.7936 40.86C59.2736 40.98 59.6536 41.06 59.8936 41.12C60.1336 41.2 60.4736 41.32 60.9136 41.5C61.3536 41.68 61.6736 41.86 61.9136 42.06C62.1336 42.26 62.3336 42.52 62.5136 42.86C62.6936 43.2 62.7936 43.58 62.7936 44C62.7936 45 62.3936 45.82 61.6136 46.42C60.8336 47.02 59.7936 47.32 58.5136 47.32C57.1136 47.32 56.0336 47.02 55.2736 46.4C54.5136 45.8 54.1136 44.9 54.0736 43.74H55.7536C55.8336 45.2 56.7736 45.92 58.5536 45.92C59.3136 45.92 59.9136 45.78 60.3736 45.46C60.8336 45.14 61.0736 44.72 61.0736 44.2C61.0736 43.86 60.9536 43.58 60.7136 43.34C60.4736 43.12 60.1936 42.96 59.9136 42.86C59.6136 42.76 59.1936 42.64 58.6536 42.5C58.5736 42.5 58.5136 42.48 58.4736 42.46C58.3536 42.44 58.0936 42.38 57.6936 42.3C57.2936 42.22 57.0136 42.14 56.8536 42.08C56.6736 42.04 56.4136 41.96 56.0936 41.84C55.7736 41.72 55.5336 41.6 55.3736 41.48C55.2136 41.36 55.0336 41.2 54.8336 41C54.6336 40.8 54.5136 40.58 54.4336 40.32C54.3536 40.06 54.3136 39.76 54.3136 39.42C54.3136 38.5 54.6536 37.76 55.3736 37.2C56.0936 36.66 57.0536 36.38 58.2536 36.38C59.4536 36.38 60.4536 36.68 61.2136 37.24C61.9736 37.82 62.3736 38.64 62.3736 39.68ZM69.2336 36.38C70.7936 36.38 71.9936 36.86 72.8736 37.82C73.7336 38.76 74.1736 40.08 74.1736 41.78C74.1736 43.54 73.7336 44.9 72.8736 45.86C71.9936 46.84 70.7736 47.32 69.2136 47.32C67.6336 47.32 66.3936 46.84 65.5136 45.88C64.6136 44.92 64.1736 43.6 64.1736 41.88C64.1736 40.2 64.6136 38.86 65.5336 37.86C66.4336 36.88 67.6736 36.38 69.2336 36.38ZM69.1936 37.82C68.1936 37.82 67.3936 38.18 66.8136 38.9C66.2136 39.64 65.9336 40.62 65.9336 41.84C65.9336 43.12 66.2136 44.1 66.7936 44.82C67.3736 45.54 68.1936 45.88 69.2336 45.88C70.2336 45.88 71.0136 45.52 71.5736 44.8C72.1336 44.08 72.4336 43.1 72.4336 41.82C72.4336 40.6 72.1336 39.62 71.5536 38.9C70.9736 38.18 70.1936 37.82 69.1936 37.82ZM84.758 36.68L84.738 47H83.158V45.38C82.278 46.66 81.098 47.28 79.598 47.28C78.518 47.28 77.658 46.98 77.058 46.38C76.458 45.78 76.158 44.92 76.158 43.78V36.68H77.858V43.32C77.858 44.14 78.018 44.76 78.338 45.18C78.658 45.6 79.218 45.8 80.038 45.8C82.038 45.8 83.058 44.56 83.058 42.08V36.68H84.758ZM92.6913 36.44L92.6713 38.22C92.5513 38.2 92.4113 38.2 92.2313 38.2C91.6913 38.2 91.2113 38.28 90.8113 38.44C90.4113 38.6 90.1113 38.82 89.8713 39.08C89.6313 39.36 89.4513 39.68 89.2913 40.08C89.1513 40.48 89.0513 40.88 89.0113 41.28C88.9712 41.68 88.9513 42.14 88.9513 42.64V47H87.2513V36.68H88.8713V38.9C89.5513 37.26 90.8113 36.44 92.6913 36.44ZM102.5 43.24C102.34 44.48 101.88 45.48 101.08 46.2C100.28 46.94 99.2598 47.3 97.9798 47.3C96.4198 47.3 95.2198 46.82 94.3598 45.86C93.5198 44.9 93.0798 43.6 93.0798 41.98C93.0798 40.26 93.5398 38.9 94.4198 37.9C95.3198 36.9 96.5198 36.38 98.0398 36.38C99.3198 36.38 100.32 36.7 101.08 37.34C101.84 37.98 102.3 38.88 102.42 40.06H100.66C100.36 38.56 99.4998 37.82 98.0798 37.82C97.0798 37.82 96.2998 38.18 95.7398 38.9C95.1598 39.62 94.8798 40.62 94.8798 41.86C94.8798 43.1 95.1398 44.1 95.6998 44.82C96.2398 45.54 96.9998 45.9 97.9598 45.9C98.7198 45.9 99.3598 45.66 99.8398 45.22C100.32 44.76 100.64 44.1 100.78 43.24H102.5ZM113.182 43.74C112.662 46.14 111.162 47.34 108.682 47.34C107.162 47.34 105.962 46.88 105.102 45.92C104.242 44.98 103.822 43.66 103.822 41.98C103.822 40.32 104.262 38.98 105.142 37.94C106.022 36.9 107.182 36.38 108.622 36.38C110.202 36.38 111.382 36.92 112.142 38C112.902 39.08 113.302 40.42 113.302 42.06V42.3H105.542L105.522 42.42C105.522 43.52 105.802 44.38 106.382 45C106.942 45.64 107.742 45.94 108.742 45.94C109.482 45.94 110.062 45.78 110.502 45.42C110.942 45.08 111.282 44.52 111.522 43.74H113.182ZM111.542 40.92C111.462 39.94 111.162 39.18 110.642 38.62C110.122 38.06 109.422 37.78 108.582 37.78C107.742 37.78 107.062 38.06 106.522 38.62C105.962 39.18 105.642 39.96 105.542 40.92H111.542Z" fill="white"/>
</svg>
