<svg width="272" height="228" viewBox="0 0 272 228" fill="none" xmlns="http://www.w3.org/2000/svg">
<path d="M265.022 228H6.97779C6.06008 228.005 5.15052 227.827 4.30172 227.478C3.45292 227.129 2.68174 226.614 2.03282 225.964C1.38389 225.314 0.870109 224.542 0.521195 223.692C0.172281 222.842 -0.00483367 221.931 0.000100318 221.012V6.98767C-0.00483367 6.06867 0.172281 5.15781 0.521195 4.30781C0.870109 3.45781 1.38389 2.68554 2.03282 2.0357C2.68174 1.38585 3.45292 0.871342 4.30172 0.521934C5.15052 0.172525 6.06008 -0.00484052 6.97779 0.00010046H265.022C265.94 -0.00484052 266.849 0.172525 267.698 0.521934C268.547 0.871342 269.318 1.38585 269.967 2.0357C270.616 2.68554 271.13 3.45781 271.479 4.30781C271.827 5.15781 272.005 6.06867 272 6.98767V220.845C272.019 222.719 271.296 224.526 269.988 225.867C268.68 227.208 266.894 227.975 265.022 228Z" fill="#091717"/>
</svg>
