<svg width="1339" height="947" viewBox="0 0 1339 947" fill="none" xmlns="http://www.w3.org/2000/svg">
<path d="M1337.46 1.82812H661.91V945.424H1337.46V1.82812Z" fill="#1E1E1E"/>
<path d="M652.396 1.82812H2.21484V945.424H652.396V1.82812Z" fill="#F7F7F7"/>
<g opacity="0.35">
<mask id="mask0_972_22382" style="mask-type:luminance" maskUnits="userSpaceOnUse" x="0" y="0" width="1339" height="947">
<path d="M1338.78 0.97168H0.359375V946.153H1338.78V0.97168Z" fill="white"/>
</mask>
<g mask="url(#mask0_972_22382)">
<g opacity="0.28">
<path d="M826.963 -16.8691H-69.0977V495.194H826.963V-16.8691Z" fill="white"/>
<mask id="mask1_972_22382" style="mask-type:luminance" maskUnits="userSpaceOnUse" x="-70" y="-17" width="897" height="513">
<path d="M826.963 -16.8848H-69.0977V495.178H826.963V-16.8848Z" fill="white"/>
</mask>
<g mask="url(#mask1_972_22382)">
<path d="M894.881 562.372H-137.004V-83.999H894.881V562.372ZM-135.672 561.04H893.517V-82.6669H-135.672V561.04Z" fill="#B3B3B3"/>
<path d="M894.213 464.222H-136.34V465.554H894.213V464.222Z" fill="#B3B3B3"/>
<path d="M894.213 431.981H-136.34V433.314H894.213V431.981Z" fill="#B3B3B3"/>
<path d="M894.213 399.725H-136.34V401.057H894.213V399.725Z" fill="#B3B3B3"/>
<path d="M894.213 367.483H-136.34V368.816H894.213V367.483Z" fill="#B3B3B3"/>
<path d="M894.213 335.228H-136.34V336.56H894.213V335.228Z" fill="#B3B3B3"/>
<path d="M894.213 302.986H-136.34V304.318H894.213V302.986Z" fill="#B3B3B3"/>
<path d="M894.213 270.729H-136.34V272.062H894.213V270.729Z" fill="#B3B3B3"/>
<path d="M894.213 238.488H-136.34V239.82H894.213V238.488Z" fill="#B3B3B3"/>
<path d="M894.213 206.232H-136.34V207.565H894.213V206.232Z" fill="#B3B3B3"/>
<path d="M894.213 173.991H-136.34V175.323H894.213V173.991Z" fill="#B3B3B3"/>
<path d="M894.213 141.734H-136.34V143.067H894.213V141.734Z" fill="#B3B3B3"/>
<path d="M894.213 109.493H-136.34V110.825H894.213V109.493Z" fill="#B3B3B3"/>
<path d="M894.213 77.2363H-136.34V78.5685H894.213V77.2363Z" fill="#B3B3B3"/>
<path d="M894.213 44.9961H-136.34V46.3282H894.213V44.9961Z" fill="#B3B3B3"/>
<path d="M894.213 12.7393H-136.34V14.0714H894.213V12.7393Z" fill="#B3B3B3"/>
<path d="M801.187 -83.333H799.855V561.642H801.187V-83.333Z" fill="#B3B3B3"/>
<path d="M769.965 -83.333H768.633V561.642H769.965V-83.333Z" fill="#B3B3B3"/>
<path d="M738.738 -83.333H737.406V561.642H738.738V-83.333Z" fill="#B3B3B3"/>
<path d="M707.5 -83.333H706.168V561.642H707.5V-83.333Z" fill="#B3B3B3"/>
<path d="M676.273 -83.333H674.941V561.642H676.273V-83.333Z" fill="#B3B3B3"/>
<path d="M645.051 -83.333H643.719V561.642H645.051V-83.333Z" fill="#B3B3B3"/>
<path d="M613.828 -83.333H612.496V561.642H613.828V-83.333Z" fill="#B3B3B3"/>
<path d="M582.586 -83.333H581.254V561.642H582.586V-83.333Z" fill="#B3B3B3"/>
<path d="M551.359 -83.333H550.027V561.642H551.359V-83.333Z" fill="#B3B3B3"/>
<path d="M520.141 -83.333H518.809V561.642H520.141V-83.333Z" fill="#B3B3B3"/>
<path d="M488.895 -83.333H487.562V561.642H488.895V-83.333Z" fill="#B3B3B3"/>
<path d="M457.672 -83.333H456.34V561.642H457.672V-83.333Z" fill="#B3B3B3"/>
<path d="M426.449 -83.333H425.117V561.642H426.449V-83.333Z" fill="#B3B3B3"/>
<path d="M395.223 -83.333H393.891V561.642H395.223V-83.333Z" fill="#B3B3B3"/>
<path d="M363.984 -83.333H362.652V561.642H363.984V-83.333Z" fill="#B3B3B3"/>
<path d="M332.758 -83.333H331.426V561.642H332.758V-83.333Z" fill="#B3B3B3"/>
<path d="M301.535 -83.333H300.203V561.642H301.535V-83.333Z" fill="#B3B3B3"/>
<path d="M270.309 -83.333H268.977V561.642H270.309V-83.333Z" fill="#B3B3B3"/>
<path d="M239.07 -83.333H237.738V561.642H239.07V-83.333Z" fill="#B3B3B3"/>
<path d="M207.84 -83.333H206.508V561.642H207.84V-83.333Z" fill="#B3B3B3"/>
<path d="M176.621 -83.333H175.289V561.642H176.621V-83.333Z" fill="#B3B3B3"/>
<path d="M145.383 -83.333H144.051V561.642H145.383V-83.333Z" fill="#B3B3B3"/>
<path d="M114.152 -83.333H112.82V561.642H114.152V-83.333Z" fill="#B3B3B3"/>
<path d="M82.9297 -83.333H81.5977V561.642H82.9297V-83.333Z" fill="#B3B3B3"/>
<path d="M51.7071 -83.333H50.375V561.642H51.7071V-83.333Z" fill="#B3B3B3"/>
<path d="M20.4688 -83.333H19.1367V561.642H20.4688V-83.333Z" fill="#B3B3B3"/>
</g>
<path d="M1698.08 -16.8691H802.016V495.194H1698.08V-16.8691Z" fill="white"/>
<mask id="mask2_972_22382" style="mask-type:luminance" maskUnits="userSpaceOnUse" x="802" y="-17" width="897" height="513">
<path d="M1698.08 -16.8848H802.016V495.178H1698.08V-16.8848Z" fill="white"/>
</mask>
<g mask="url(#mask2_972_22382)">
<path d="M1765.98 562.372H734.098V-83.999H1765.98V562.372ZM735.43 561.04H1764.62V-82.6669H735.43V561.04Z" fill="#B3B3B3"/>
<path d="M1765.33 464.222H734.777V465.554H1765.33V464.222Z" fill="#B3B3B3"/>
<path d="M1765.33 431.981H734.777V433.314H1765.33V431.981Z" fill="#B3B3B3"/>
<path d="M1765.33 399.725H734.777V401.057H1765.33V399.725Z" fill="#B3B3B3"/>
<path d="M1765.33 367.483H734.777V368.816H1765.33V367.483Z" fill="#B3B3B3"/>
<path d="M1765.33 335.228H734.777V336.56H1765.33V335.228Z" fill="#B3B3B3"/>
<path d="M1765.33 302.986H734.777V304.318H1765.33V302.986Z" fill="#B3B3B3"/>
<path d="M1765.33 270.729H734.777V272.062H1765.33V270.729Z" fill="#B3B3B3"/>
<path d="M1765.33 238.488H734.777V239.82H1765.33V238.488Z" fill="#B3B3B3"/>
<path d="M1765.33 206.232H734.777V207.565H1765.33V206.232Z" fill="#B3B3B3"/>
<path d="M1765.33 173.991H734.777V175.323H1765.33V173.991Z" fill="#B3B3B3"/>
<path d="M1765.33 141.734H734.777V143.067H1765.33V141.734Z" fill="#B3B3B3"/>
<path d="M1765.33 109.493H734.777V110.825H1765.33V109.493Z" fill="#B3B3B3"/>
<path d="M1765.33 77.2363H734.777V78.5685H1765.33V77.2363Z" fill="#B3B3B3"/>
<path d="M1765.33 44.9961H734.777V46.3282H1765.33V44.9961Z" fill="#B3B3B3"/>
<path d="M1765.33 12.7393H734.777V14.0714H1765.33V12.7393Z" fill="#B3B3B3"/>
<path d="M1328.79 -83.333H1327.46V561.642H1328.79V-83.333Z" fill="#B3B3B3"/>
<path d="M1297.55 -83.333H1296.22V561.642H1297.55V-83.333Z" fill="#B3B3B3"/>
<path d="M1266.32 -83.333H1264.99V561.642H1266.32V-83.333Z" fill="#B3B3B3"/>
<path d="M1235.1 -83.333H1233.77V561.642H1235.1V-83.333Z" fill="#B3B3B3"/>
<path d="M1203.87 -83.333H1202.54V561.642H1203.87V-83.333Z" fill="#B3B3B3"/>
<path d="M1172.63 -83.333H1171.3V561.642H1172.63V-83.333Z" fill="#B3B3B3"/>
<path d="M1141.41 -83.333H1140.08V561.642H1141.41V-83.333Z" fill="#B3B3B3"/>
<path d="M1110.19 -83.333H1108.86V561.642H1110.19V-83.333Z" fill="#B3B3B3"/>
<path d="M1078.94 -83.333H1077.61V561.642H1078.94V-83.333Z" fill="#B3B3B3"/>
<path d="M1047.72 -83.333H1046.39V561.642H1047.72V-83.333Z" fill="#B3B3B3"/>
<path d="M1016.5 -83.333H1015.16V561.642H1016.5V-83.333Z" fill="#B3B3B3"/>
<path d="M985.274 -83.333H983.941V561.642H985.274V-83.333Z" fill="#B3B3B3"/>
<path d="M954.031 -83.333H952.699V561.642H954.031V-83.333Z" fill="#B3B3B3"/>
<path d="M922.809 -83.333H921.477V561.642H922.809V-83.333Z" fill="#B3B3B3"/>
<path d="M891.582 -83.333H890.25V561.642H891.582V-83.333Z" fill="#B3B3B3"/>
<path d="M860.355 -83.333H859.023V561.642H860.355V-83.333Z" fill="#B3B3B3"/>
<path d="M829.117 -83.333H827.785V561.642H829.117V-83.333Z" fill="#B3B3B3"/>
</g>
<path d="M826.963 465.824H-69.0977V977.887H826.963V465.824Z" fill="white"/>
<mask id="mask3_972_22382" style="mask-type:luminance" maskUnits="userSpaceOnUse" x="-70" y="465" width="897" height="513">
<path d="M826.963 465.808H-69.0977V977.871H826.963V465.808Z" fill="white"/>
</mask>
<g mask="url(#mask3_972_22382)">
<path d="M894.881 1045H-137.004V398.693H894.881V1045ZM-135.672 1043.65H893.517V400.026H-135.672V1043.65Z" fill="#B3B3B3"/>
<path d="M894.213 914.674H-136.34V916.006H894.213V914.674Z" fill="#B3B3B3"/>
<path d="M894.213 882.417H-136.34V883.749H894.213V882.417Z" fill="#B3B3B3"/>
<path d="M894.213 850.176H-136.34V851.508H894.213V850.176Z" fill="#B3B3B3"/>
<path d="M894.213 817.936H-136.34V819.268H894.213V817.936Z" fill="#B3B3B3"/>
<path d="M894.213 785.679H-136.34V787.011H894.213V785.679Z" fill="#B3B3B3"/>
<path d="M894.213 753.438H-136.34V754.77H894.213V753.438Z" fill="#B3B3B3"/>
<path d="M894.213 721.182H-136.34V722.514H894.213V721.182Z" fill="#B3B3B3"/>
<path d="M894.213 688.94H-136.34V690.273H894.213V688.94Z" fill="#B3B3B3"/>
<path d="M894.213 656.684H-136.34V658.016H894.213V656.684Z" fill="#B3B3B3"/>
<path d="M894.213 624.443H-136.34V625.775H894.213V624.443Z" fill="#B3B3B3"/>
<path d="M894.213 592.186H-136.34V593.518H894.213V592.186Z" fill="#B3B3B3"/>
<path d="M894.213 559.945H-136.34V561.277H894.213V559.945Z" fill="#B3B3B3"/>
<path d="M894.213 527.688H-136.34V529.021H894.213V527.688Z" fill="#B3B3B3"/>
<path d="M894.213 495.447H-136.34V496.779H894.213V495.447Z" fill="#B3B3B3"/>
<path d="M801.187 399.359H799.855V1044.33H801.187V399.359Z" fill="#B3B3B3"/>
<path d="M769.965 399.359H768.633V1044.33H769.965V399.359Z" fill="#B3B3B3"/>
<path d="M738.738 399.359H737.406V1044.33H738.738V399.359Z" fill="#B3B3B3"/>
<path d="M707.5 399.359H706.168V1044.33H707.5V399.359Z" fill="#B3B3B3"/>
<path d="M676.273 399.359H674.941V1044.33H676.273V399.359Z" fill="#B3B3B3"/>
<path d="M645.051 399.359H643.719V1044.33H645.051V399.359Z" fill="#B3B3B3"/>
<path d="M613.828 399.359H612.496V1044.33H613.828V399.359Z" fill="#B3B3B3"/>
<path d="M582.586 399.359H581.254V1044.33H582.586V399.359Z" fill="#B3B3B3"/>
<path d="M551.359 399.359H550.027V1044.33H551.359V399.359Z" fill="#B3B3B3"/>
<path d="M520.141 399.359H518.809V1044.33H520.141V399.359Z" fill="#B3B3B3"/>
<path d="M488.895 399.359H487.562V1044.33H488.895V399.359Z" fill="#B3B3B3"/>
<path d="M457.672 399.359H456.34V1044.33H457.672V399.359Z" fill="#B3B3B3"/>
<path d="M426.449 399.359H425.117V1044.33H426.449V399.359Z" fill="#B3B3B3"/>
<path d="M395.223 399.359H393.891V1044.33H395.223V399.359Z" fill="#B3B3B3"/>
<path d="M363.984 399.359H362.652V1044.33H363.984V399.359Z" fill="#B3B3B3"/>
<path d="M332.758 399.359H331.426V1044.33H332.758V399.359Z" fill="#B3B3B3"/>
<path d="M301.535 399.359H300.203V1044.33H301.535V399.359Z" fill="#B3B3B3"/>
<path d="M270.309 399.359H268.977V1044.33H270.309V399.359Z" fill="#B3B3B3"/>
<path d="M239.07 399.359H237.738V1044.33H239.07V399.359Z" fill="#B3B3B3"/>
<path d="M207.84 399.359H206.508V1044.33H207.84V399.359Z" fill="#B3B3B3"/>
<path d="M176.621 399.359H175.289V1044.33H176.621V399.359Z" fill="#B3B3B3"/>
<path d="M145.383 399.359H144.051V1044.33H145.383V399.359Z" fill="#B3B3B3"/>
<path d="M114.152 399.359H112.82V1044.33H114.152V399.359Z" fill="#B3B3B3"/>
<path d="M82.9297 399.359H81.5977V1044.33H82.9297V399.359Z" fill="#B3B3B3"/>
<path d="M51.7071 399.359H50.375V1044.33H51.7071V399.359Z" fill="#B3B3B3"/>
<path d="M20.4688 399.359H19.1367V1044.33H20.4688V399.359Z" fill="#B3B3B3"/>
</g>
<path d="M1698.08 465.824H802.016V977.887H1698.08V465.824Z" fill="white"/>
<mask id="mask4_972_22382" style="mask-type:luminance" maskUnits="userSpaceOnUse" x="802" y="465" width="897" height="513">
<path d="M1698.08 465.808H802.016V977.871H1698.08V465.808Z" fill="white"/>
</mask>
<g mask="url(#mask4_972_22382)">
<path d="M1765.98 1045H734.098V398.693H1765.98V1045ZM735.43 1043.65H1764.62V400.026H735.43V1043.65Z" fill="#B3B3B3"/>
<path d="M1765.33 914.674H734.777V916.006H1765.33V914.674Z" fill="#B3B3B3"/>
<path d="M1765.33 882.417H734.777V883.749H1765.33V882.417Z" fill="#B3B3B3"/>
<path d="M1765.33 850.176H734.777V851.508H1765.33V850.176Z" fill="#B3B3B3"/>
<path d="M1765.33 817.936H734.777V819.268H1765.33V817.936Z" fill="#B3B3B3"/>
<path d="M1765.33 785.679H734.777V787.011H1765.33V785.679Z" fill="#B3B3B3"/>
<path d="M1765.33 753.438H734.777V754.77H1765.33V753.438Z" fill="#B3B3B3"/>
<path d="M1765.33 721.182H734.777V722.514H1765.33V721.182Z" fill="#B3B3B3"/>
<path d="M1765.33 688.94H734.777V690.273H1765.33V688.94Z" fill="#B3B3B3"/>
<path d="M1765.33 656.684H734.777V658.016H1765.33V656.684Z" fill="#B3B3B3"/>
<path d="M1765.33 624.443H734.777V625.775H1765.33V624.443Z" fill="#B3B3B3"/>
<path d="M1765.33 592.186H734.777V593.518H1765.33V592.186Z" fill="#B3B3B3"/>
<path d="M1765.33 559.945H734.777V561.277H1765.33V559.945Z" fill="#B3B3B3"/>
<path d="M1765.33 527.688H734.777V529.021H1765.33V527.688Z" fill="#B3B3B3"/>
<path d="M1765.33 495.447H734.777V496.779H1765.33V495.447Z" fill="#B3B3B3"/>
<path d="M1328.79 399.359H1327.46V1044.33H1328.79V399.359Z" fill="#B3B3B3"/>
<path d="M1297.55 399.359H1296.22V1044.33H1297.55V399.359Z" fill="#B3B3B3"/>
<path d="M1266.32 399.359H1264.99V1044.33H1266.32V399.359Z" fill="#B3B3B3"/>
<path d="M1235.1 399.359H1233.77V1044.33H1235.1V399.359Z" fill="#B3B3B3"/>
<path d="M1203.87 399.359H1202.54V1044.33H1203.87V399.359Z" fill="#B3B3B3"/>
<path d="M1172.63 399.359H1171.3V1044.33H1172.63V399.359Z" fill="#B3B3B3"/>
<path d="M1141.41 399.359H1140.08V1044.33H1141.41V399.359Z" fill="#B3B3B3"/>
<path d="M1110.19 399.359H1108.86V1044.33H1110.19V399.359Z" fill="#B3B3B3"/>
<path d="M1078.94 399.359H1077.61V1044.33H1078.94V399.359Z" fill="#B3B3B3"/>
<path d="M1047.72 399.359H1046.39V1044.33H1047.72V399.359Z" fill="#B3B3B3"/>
<path d="M1016.5 399.359H1015.16V1044.33H1016.5V399.359Z" fill="#B3B3B3"/>
<path d="M985.274 399.359H983.941V1044.33H985.274V399.359Z" fill="#B3B3B3"/>
<path d="M954.031 399.359H952.699V1044.33H954.031V399.359Z" fill="#B3B3B3"/>
<path d="M922.809 399.359H921.477V1044.33H922.809V399.359Z" fill="#B3B3B3"/>
<path d="M891.582 399.359H890.25V1044.33H891.582V399.359Z" fill="#B3B3B3"/>
<path d="M860.355 399.359H859.023V1044.33H860.355V399.359Z" fill="#B3B3B3"/>
<path d="M829.117 399.359H827.785V1044.33H829.117V399.359Z" fill="#B3B3B3"/>
</g>
</g>
</g>
</g>
<path d="M165.012 96.8535H112.95C112.171 96.8535 111.539 97.4854 111.539 98.2649V141.369C111.539 142.149 112.171 142.78 112.95 142.78H165.012C165.792 142.78 166.424 142.149 166.424 141.369V98.2649C166.424 97.4854 165.792 96.8535 165.012 96.8535Z" fill="#0C0C0C"/>
<path d="M139.707 100.089H138.406V139.434H139.707V100.089Z" fill="#FCFCFC"/>
<path d="M119.484 112.824V114.124H138.387V112.824H119.484Z" fill="#FCFCFC"/>
<path d="M139.672 125.431V126.731H158.575V125.431H139.672Z" fill="#FCFCFC"/>
<path d="M192.924 133.535C190.952 133.71 188.964 133.472 187.089 132.836C185.213 132.201 183.49 131.183 182.03 129.845C180.569 128.508 179.403 126.882 178.605 125.069C177.807 123.257 177.395 121.298 177.395 119.318C177.395 117.337 177.807 115.379 178.605 113.566C179.403 111.754 180.569 110.127 182.03 108.79C183.49 107.453 185.213 106.434 187.089 105.799C188.964 105.164 190.952 104.926 192.924 105.1C195.273 105.01 197.601 105.567 199.654 106.711C201.707 107.855 203.405 109.542 204.564 111.587L200.171 115.155C199.461 113.849 198.414 112.756 197.14 111.99C195.866 111.223 194.411 110.81 192.924 110.794C191.817 110.766 190.717 110.971 189.693 111.395C188.67 111.819 187.747 112.452 186.984 113.255C186.22 114.057 185.634 115.01 185.261 116.053C184.888 117.096 184.738 118.205 184.821 119.31C184.761 120.405 184.923 121.501 185.298 122.531C185.673 123.562 186.253 124.506 187.003 125.306C187.753 126.107 188.657 126.747 189.661 127.188C190.665 127.629 191.748 127.862 192.845 127.874C194.362 127.864 195.849 127.449 197.151 126.671C198.453 125.893 199.523 124.78 200.251 123.449L204.754 126.922C203.523 128.953 201.785 130.631 199.712 131.79C197.638 132.949 195.3 133.55 192.924 133.535Z" fill="black"/>
<path d="M213.477 113.284V124.385C213.404 124.886 213.442 125.396 213.59 125.881C213.737 126.365 213.989 126.811 214.328 127.186C214.668 127.562 215.085 127.858 215.552 128.054C216.019 128.249 216.523 128.339 217.029 128.318C219.566 128.318 220.93 126.113 220.93 123.56V113.252H226.782V133.075H221.152V130.522C220.544 131.514 219.675 132.32 218.641 132.851C217.606 133.383 216.445 133.619 215.284 133.535C210.527 133.535 207.625 130.364 207.625 125.32V113.284H213.477Z" fill="black"/>
<path d="M237.553 133.075H232.113V105.64H237.981V115.742C238.622 114.831 239.48 114.094 240.476 113.596C241.472 113.098 242.576 112.854 243.69 112.887C249.113 112.887 252.983 117.359 252.983 123.259C252.983 129.158 248.812 133.599 243.801 133.599C242.579 133.62 241.372 133.342 240.283 132.789C239.194 132.236 238.256 131.425 237.553 130.427V133.075ZM247.067 123.116C246.954 122.225 246.586 121.385 246.008 120.699C245.429 120.012 244.664 119.507 243.805 119.244C242.946 118.981 242.03 118.973 241.166 119.219C240.302 119.464 239.527 119.955 238.935 120.63C238.344 121.306 237.959 122.138 237.829 123.027C237.699 123.916 237.828 124.823 238.201 125.64C238.575 126.457 239.176 127.149 239.933 127.632C240.69 128.116 241.57 128.37 242.469 128.365C243.128 128.349 243.777 128.197 244.374 127.917C244.971 127.637 245.503 127.236 245.937 126.74C246.371 126.243 246.697 125.662 246.894 125.032C247.092 124.403 247.156 123.74 247.083 123.084L247.067 123.116Z" fill="black"/>
<path d="M274.924 121.958C274.904 122.846 274.787 123.728 274.575 124.591H261.381C261.683 127.255 264.046 128.555 266.63 128.555C267.542 128.558 268.445 128.378 269.287 128.027C270.128 127.675 270.891 127.16 271.531 126.51L274.702 130.3C273.588 131.359 272.274 132.186 270.836 132.731C269.398 133.275 267.866 133.527 266.329 133.472C259.701 133.472 255.371 128.952 255.371 123.132C255.333 121.775 255.568 120.425 256.064 119.162C256.56 117.899 257.305 116.748 258.256 115.78C259.206 114.812 260.342 114.045 261.596 113.526C262.85 113.007 264.195 112.747 265.552 112.76C266.787 112.688 268.023 112.876 269.181 113.31C270.339 113.745 271.393 114.417 272.276 115.283C273.158 116.149 273.85 117.191 274.306 118.34C274.762 119.49 274.973 120.722 274.924 121.958ZM261.302 120.959H269.231C269.203 120.491 269.082 120.034 268.876 119.614C268.67 119.193 268.382 118.818 268.029 118.509C267.677 118.201 267.266 117.966 266.822 117.817C266.378 117.669 265.908 117.61 265.441 117.645C264.459 117.566 263.484 117.865 262.715 118.481C261.946 119.097 261.44 119.983 261.302 120.959Z" fill="black"/>
<path d="M185.565 221.424H113.505C112.419 221.424 111.539 222.304 111.539 223.39V283.051C111.539 284.137 112.419 285.017 113.505 285.017H185.565C186.651 285.017 187.531 284.137 187.531 283.051V223.39C187.531 222.304 186.651 221.424 185.565 221.424Z" fill="#0C0C0C"/>
<path d="M150.538 225.896H148.73V280.371H150.538V225.896Z" fill="#FCFCFC"/>
<path d="M122.566 243.515V245.323H148.748V243.515H122.566Z" fill="#FCFCFC"/>
<path d="M150.488 260.976V262.784H176.67V260.976H150.488Z" fill="#FCFCFC"/>
<path d="M224.214 272.157C221.63 272.149 219.072 271.633 216.687 270.637C214.302 269.641 212.137 268.186 210.315 266.353C208.492 264.52 207.049 262.347 206.067 259.956C205.084 257.566 204.583 255.005 204.59 252.42C204.597 249.836 205.113 247.278 206.109 244.893C207.105 242.508 208.561 240.343 210.393 238.52C212.226 236.698 214.399 235.254 216.79 234.272C219.18 233.29 221.741 232.788 224.325 232.795C227.578 232.666 230.804 233.436 233.649 235.019C236.494 236.602 238.848 238.938 240.453 241.771L234.252 246.687C233.271 244.876 231.822 243.361 230.057 242.298C228.292 241.236 226.274 240.665 224.214 240.645C217.49 240.645 213.003 245.783 213.003 252.46C213.003 259.137 217.76 264.307 224.103 264.307C226.206 264.295 228.267 263.72 230.072 262.64C231.877 261.561 233.359 260.017 234.363 258.169L240.612 262.927C238.913 265.755 236.508 268.092 233.633 269.71C230.759 271.328 227.513 272.171 224.214 272.157Z" fill="black"/>
<path d="M252.678 244.165V259.596C252.678 263.132 254.597 265.051 257.578 265.051C261.114 265.051 262.986 262.006 262.986 258.422V244.149H271.105V271.553H263.303V268.033C262.456 269.4 261.253 270.511 259.822 271.246C258.392 271.981 256.788 272.312 255.183 272.204C248.666 272.204 244.559 267.938 244.559 260.833V244.165H252.678Z" fill="black"/>
<path d="M285.994 271.57H278.461V233.509H286.58V247.496C287.471 246.232 288.662 245.209 290.046 244.52C291.43 243.831 292.964 243.497 294.509 243.547C302.042 243.547 307.386 249.732 307.386 257.915C307.386 266.352 301.614 272.188 294.7 272.188C293.001 272.209 291.323 271.81 289.816 271.027C288.308 270.245 287.017 269.102 286.057 267.7L285.994 271.57ZM299.187 257.789C299.187 253.507 296.301 250.684 292.844 250.684C289.387 250.684 286.374 253.459 286.374 257.789C286.374 262.118 289.213 265.052 292.844 265.052C296.476 265.052 299.187 262.166 299.187 257.789Z" fill="black"/>
<path d="M337.741 256.187C337.71 257.411 337.55 258.628 337.266 259.818H318.997C319.425 263.498 322.676 265.321 326.26 265.321C327.532 265.335 328.794 265.091 329.968 264.603C331.143 264.115 332.207 263.394 333.095 262.483L337.361 267.716C335.822 269.192 334.004 270.345 332.013 271.108C330.022 271.87 327.899 272.227 325.768 272.157C316.587 272.157 310.608 265.908 310.608 257.884C310.55 256.004 310.873 254.132 311.558 252.38C312.242 250.629 313.274 249.034 314.591 247.691C315.908 246.349 317.484 245.287 319.222 244.569C320.96 243.852 322.826 243.493 324.706 243.516C332.508 243.611 337.741 248.812 337.741 256.187ZM318.886 254.791H329.828C329.792 254.144 329.627 253.51 329.344 252.927C329.06 252.344 328.663 251.823 328.176 251.395C327.689 250.966 327.121 250.64 326.506 250.433C325.891 250.227 325.242 250.145 324.595 250.192C323.238 250.094 321.895 250.514 320.835 251.368C319.776 252.221 319.079 253.444 318.886 254.791Z" fill="black"/>
<path d="M210.224 356.541H114.156C112.711 356.541 111.539 357.713 111.539 359.158V438.705C111.539 440.15 112.711 441.322 114.156 441.322H210.224C211.669 441.322 212.84 440.15 212.84 438.705V359.158C212.84 357.713 211.669 356.541 210.224 356.541Z" fill="#0C0C0C"/>
<path d="M163.527 362.504H161.133V435.121H163.527V362.504Z" fill="#FCFCFC"/>
<path d="M126.223 386.022V388.417H161.126V386.022H126.223Z" fill="#FCFCFC"/>
<path d="M163.477 409.271V411.666H198.38V409.271H163.477Z" fill="#FCFCFC"/>
<path d="M261.75 424.242C258.282 424.309 254.836 423.675 251.619 422.378C248.401 421.08 245.479 419.147 243.027 416.693C240.574 414.239 238.643 411.316 237.348 408.097C236.053 404.879 235.421 401.432 235.489 397.964C235.489 383.311 246.384 371.781 261.893 371.781C271.503 371.781 279.337 376.253 283.397 383.739L275.135 390.288C273.825 387.874 271.893 385.853 269.54 384.437C267.187 383.02 264.497 382.259 261.75 382.232C252.791 382.232 246.812 389.067 246.812 397.964C246.812 406.861 253.155 413.823 261.608 413.823C267.459 413.823 272.074 410.825 275.277 405.64L283.619 411.983C281.347 415.745 278.138 418.853 274.304 421.002C270.471 423.151 266.145 424.267 261.75 424.242Z" fill="black"/>
<path d="M299.698 386.863V407.479C299.698 412.236 302.267 414.726 306.247 414.726C311.005 414.726 313.447 410.666 313.447 405.909V386.878H324.262V423.353H313.875V418.596C312.742 420.416 311.136 421.893 309.228 422.871C307.32 423.848 305.183 424.289 303.044 424.146C294.354 424.146 288.883 418.453 288.883 408.985V386.783L299.698 386.863Z" fill="black"/>
<path d="M344.128 423.386H334.09V372.638H344.905V391.288C346.089 389.608 347.67 388.248 349.507 387.33C351.345 386.411 353.381 385.962 355.435 386.022C365.473 386.022 372.593 394.285 372.593 405.18C372.593 416.424 364.902 424.21 355.657 424.21C353.392 424.238 351.155 423.707 349.144 422.664C347.133 421.621 345.41 420.099 344.128 418.232V423.386ZM361.699 405.021C361.699 399.328 357.861 395.506 353.231 395.506C348.6 395.506 344.62 399.201 344.62 405.021C344.62 410.841 348.394 414.695 353.231 414.695C358.067 414.695 361.699 410.857 361.699 405.021Z" fill="black"/>
<path d="M413.114 402.88C413.071 404.516 412.853 406.143 412.464 407.733H388.122C388.693 412.633 393.038 415.059 397.795 415.059C399.491 415.077 401.173 414.751 402.74 414.103C404.307 413.454 405.726 412.496 406.914 411.285L412.607 418.263C410.561 420.24 408.141 421.787 405.488 422.814C402.836 423.841 400.004 424.326 397.161 424.242C384.919 424.242 376.942 415.916 376.942 405.211C376.867 402.706 377.299 400.211 378.212 397.877C379.125 395.543 380.501 393.417 382.256 391.628C384.011 389.839 386.11 388.423 388.426 387.465C390.742 386.507 393.228 386.027 395.734 386.054C406.137 386.006 413.114 393.063 413.114 402.88ZM387.979 401.024H402.569C402.52 400.161 402.301 399.317 401.922 398.54C401.544 397.763 401.014 397.069 400.365 396.499C399.715 395.929 398.958 395.494 398.138 395.22C397.319 394.946 396.453 394.838 395.591 394.903C393.783 394.768 391.991 395.325 390.577 396.462C389.164 397.598 388.235 399.229 387.979 401.024Z" fill="black"/>
<path d="M234.899 508.483H114.806C113.002 508.483 111.539 509.946 111.539 511.75V611.185C111.539 612.989 113.002 614.452 114.806 614.452H234.899C236.703 614.452 238.166 612.989 238.166 611.185V511.75C238.166 509.946 236.703 508.483 234.899 508.483Z" fill="#091717"/>
<path d="M176.525 515.938H173.527V606.713H176.525V515.938Z" fill="#FCFCFC"/>
<path d="M129.887 545.324V548.321H173.512V545.324H129.887Z" fill="#FCFCFC"/>
<path d="M176.465 574.408V577.405H220.09V574.408H176.465Z" fill="#FCFCFC"/>
<path d="M299.301 593.105C294.967 593.191 290.66 592.401 286.638 590.782C282.616 589.163 278.963 586.748 275.898 583.682C272.832 580.617 270.417 576.963 268.798 572.942C267.179 568.92 266.389 564.612 266.475 560.278C266.475 541.945 280.081 527.529 299.476 527.529C311.496 527.529 321.185 533.143 326.355 542.484L316.032 550.667C314.391 547.653 311.975 545.132 309.034 543.365C306.093 541.597 302.733 540.647 299.301 540.613C288.09 540.613 280.621 549.161 280.621 560.278C280.621 571.395 288.439 580.038 299.127 580.038C306.422 580.038 312.194 576.295 316.206 569.793L326.609 577.802C323.77 582.497 319.761 586.375 314.975 589.057C310.188 591.74 304.788 593.134 299.301 593.105Z" fill="#091717"/>
<path d="M346.734 546.402V572.109C346.734 577.977 349.906 581.18 354.917 581.18C360.784 581.18 363.908 576.121 363.908 570.158V546.37H377.419V592.012H364.432V586.16C361.498 590.917 356.962 593.09 350.905 593.09C340.058 593.09 333.207 585.969 333.207 574.139V546.386L346.734 546.402Z" fill="#091717"/>
<path d="M402.251 592.043H389.707V528.608H403.234V551.905C404.715 549.808 406.692 548.11 408.989 546.961C411.285 545.813 413.83 545.25 416.396 545.324C428.94 545.324 437.836 555.648 437.836 569.27C437.836 583.321 428.226 593.058 416.666 593.058C412.13 593.058 405.565 591.013 402.251 585.589V592.043ZM424.23 569.08C424.23 561.959 419.473 557.249 413.637 557.249C407.595 557.249 402.869 561.88 402.869 569.08C402.869 576.28 407.627 581.18 413.637 581.18C419.425 581.18 424.23 576.375 424.23 569.08Z" fill="#091717"/>
<path d="M488.473 566.415C488.422 568.457 488.156 570.487 487.68 572.473H457.248C457.962 578.611 463.385 581.64 469.348 581.64C471.469 581.655 473.57 581.241 475.527 580.424C477.484 579.606 479.255 578.401 480.734 576.882L487.854 585.604C485.298 588.078 482.271 590.013 478.954 591.296C475.636 592.579 472.095 593.184 468.539 593.074C453.236 593.074 443.277 582.67 443.277 569.286C443.277 555.901 453.236 545.339 466.763 545.339C479.751 545.323 488.473 554.14 488.473 566.415ZM457.074 564.1H475.311C475.041 559.342 471.299 556.44 466.589 556.44C461.879 556.44 457.692 559.199 457.074 564.1Z" fill="#091717"/>
<path d="M270.437 705.877H115.741C113.421 705.877 111.539 707.758 111.539 710.08V838.155C111.539 840.476 113.421 842.357 115.741 842.357H270.437C272.758 842.357 274.639 840.476 274.639 838.155V710.08C274.639 707.758 272.758 705.877 270.437 705.877Z" fill="#091717"/>
<path d="M195.256 715.487H191.387V832.398H195.256V715.487Z" fill="#FCFCFC"/>
<path d="M135.184 753.31V757.18H191.369V753.31H135.184Z" fill="#FCFCFC"/>
<path d="M195.16 790.785V794.654H251.345V790.785H195.16Z" fill="#FCFCFC"/>
<path d="M353.375 814.874C328.97 814.874 311.082 796.192 311.082 772.579C311.082 748.965 328.621 730.474 353.613 730.474C369.091 730.474 381.587 737.705 388.232 749.742L374.927 760.288C372.816 756.402 369.705 753.152 365.916 750.874C362.127 748.596 357.797 747.373 353.375 747.331C338.945 747.331 329.319 758.337 329.319 772.705C329.319 787.074 339.405 798.159 353.106 798.159C362.51 798.159 369.963 793.401 375.117 784.98L388.517 795.288C384.85 801.31 379.685 806.279 373.527 809.711C367.368 813.144 360.426 814.922 353.375 814.874Z" fill="#091717"/>
<path d="M414.463 754.706V787.835C414.463 795.4 418.602 799.523 425.009 799.523C432.573 799.523 436.585 792.989 436.585 785.25V754.706H454.029V813.51H437.283V805.946C433.493 812.02 427.657 814.874 419.839 814.874C405.852 814.874 397.035 805.708 397.035 790.468V754.706H414.463Z" fill="#091717"/>
<path d="M485.985 813.51H469.762V731.774H487.206V761.811C490.98 755.959 497.862 753.326 504.174 753.326C520.333 753.326 531.783 766.616 531.783 784.156C531.783 802.267 519.413 814.874 504.507 814.874C498.671 814.874 490.235 812.242 485.937 805.248L485.985 813.51ZM514.307 783.934C514.307 774.767 508.107 768.678 500.653 768.678C492.867 768.678 486.793 774.641 486.793 783.934C486.793 793.227 492.867 799.523 500.653 799.523C508.107 799.523 514.307 793.338 514.307 783.934Z" fill="#091717"/>
<path d="M597.055 780.492C596.991 783.122 596.646 785.738 596.024 788.295H556.823C557.727 796.224 564.752 800.094 572.412 800.094C575.139 800.119 577.844 799.594 580.364 798.55C582.885 797.507 585.169 795.966 587.08 794.02L596.246 805.248C592.956 808.433 589.06 810.926 584.789 812.58C580.518 814.233 575.959 815.013 571.381 814.874C551.653 814.874 538.824 801.473 538.824 784.156C538.824 766.838 551.653 753.326 569.081 753.326C585.812 753.326 597.055 764.681 597.055 780.492ZM556.585 777.511H580.087V777.4C579.738 771.326 574.933 767.536 568.859 767.536C562.548 767.536 557.394 771.199 556.585 777.511Z" fill="#091717"/>
<path d="M802.192 96.8535H750.13C749.351 96.8535 748.719 97.4854 748.719 98.2649V141.369C748.719 142.149 749.351 142.78 750.13 142.78H802.192C802.972 142.78 803.604 142.149 803.604 141.369V98.2649C803.604 97.4854 802.972 96.8535 802.192 96.8535Z" fill="#F7F7F7"/>
<path d="M776.898 100.089H775.598V139.434H776.898V100.089Z" fill="#0C0C0C"/>
<path d="M756.68 112.824V114.124H775.583V112.824H756.68Z" fill="#0C0C0C"/>
<path d="M776.867 125.431V126.731H795.77V125.431H776.867Z" fill="#0C0C0C"/>
<path d="M830.12 133.535C828.147 133.71 826.16 133.472 824.284 132.836C822.409 132.201 820.686 131.183 819.225 129.845C817.764 128.508 816.598 126.882 815.8 125.069C815.002 123.257 814.59 121.298 814.59 119.318C814.59 117.337 815.002 115.379 815.8 113.566C816.598 111.754 817.764 110.127 819.225 108.79C820.686 107.453 822.409 106.434 824.284 105.799C826.16 105.164 828.147 104.926 830.12 105.1C832.47 105.009 834.801 105.566 836.857 106.71C838.912 107.854 840.614 109.541 841.775 111.587L837.367 115.155C836.656 113.849 835.61 112.756 834.336 111.99C833.062 111.223 831.606 110.81 830.12 110.794C829.012 110.766 827.912 110.971 826.889 111.395C825.866 111.819 824.943 112.452 824.179 113.255C823.416 114.057 822.829 115.01 822.456 116.053C822.084 117.096 821.934 118.205 822.016 119.31C821.956 120.405 822.119 121.501 822.494 122.531C822.869 123.562 823.449 124.506 824.199 125.306C824.948 126.107 825.853 126.747 826.857 127.188C827.861 127.629 828.944 127.862 830.04 127.874C831.557 127.864 833.044 127.449 834.346 126.671C835.648 125.893 836.719 124.78 837.446 123.449L841.95 126.922C840.718 128.953 838.981 130.631 836.907 131.79C834.834 132.949 832.495 133.55 830.12 133.535Z" fill="#F2F2F2"/>
<path d="M850.673 113.284V124.385C850.6 124.886 850.639 125.396 850.786 125.881C850.933 126.365 851.186 126.811 851.525 127.186C851.864 127.562 852.282 127.858 852.749 128.054C853.215 128.249 853.72 128.339 854.225 128.318C856.763 128.318 858.111 126.113 858.111 123.56V113.252H863.978V133.075H858.285V130.522C857.677 131.514 856.808 132.32 855.774 132.851C854.739 133.383 853.578 133.619 852.417 133.535C847.66 133.535 844.742 130.364 844.742 125.32V113.284H850.673Z" fill="#F2F2F2"/>
<path d="M874.743 133.075H869.383V105.64H875.25V115.742C875.89 114.833 876.745 114.098 877.738 113.6C878.732 113.101 879.833 112.857 880.943 112.887C886.383 112.887 890.252 117.359 890.252 123.259C890.252 129.158 886.081 133.599 881.07 133.599C879.849 133.62 878.641 133.342 877.552 132.789C876.463 132.236 875.526 131.425 874.822 130.427L874.743 133.075ZM884.258 123.116C884.145 122.225 883.777 121.385 883.198 120.699C882.619 120.012 881.854 119.507 880.995 119.244C880.136 118.981 879.22 118.973 878.356 119.219C877.492 119.464 876.718 119.955 876.126 120.63C875.534 121.306 875.15 122.138 875.019 123.027C874.889 123.916 875.019 124.823 875.392 125.64C875.765 126.457 876.366 127.149 877.123 127.632C877.88 128.116 878.761 128.37 879.659 128.365C880.318 128.349 880.967 128.197 881.564 127.917C882.161 127.637 882.694 127.236 883.127 126.74C883.561 126.243 883.887 125.662 884.085 125.032C884.282 124.403 884.346 123.74 884.274 123.084L884.258 123.116Z" fill="#F2F2F2"/>
<path d="M912.201 121.958C912.173 122.845 912.056 123.727 911.852 124.59H898.658C898.96 127.255 901.322 128.555 903.907 128.555C904.824 128.561 905.734 128.384 906.581 128.032C907.428 127.681 908.196 127.163 908.839 126.509L911.931 130.299C910.817 131.358 909.502 132.184 908.064 132.729C906.627 133.273 905.095 133.526 903.558 133.471C896.914 133.471 892.6 128.951 892.6 123.131C892.569 121.788 892.806 120.451 893.299 119.201C893.792 117.95 894.53 116.811 895.47 115.851C896.41 114.89 897.533 114.127 898.772 113.607C900.011 113.087 901.342 112.821 902.686 112.823C903.927 112.731 905.173 112.901 906.343 113.323C907.514 113.744 908.583 114.407 909.48 115.269C910.378 116.13 911.084 117.171 911.553 118.324C912.021 119.476 912.242 120.714 912.201 121.958ZM898.579 120.959H906.508C906.484 120.485 906.365 120.022 906.159 119.595C905.952 119.169 905.662 118.788 905.306 118.476C904.949 118.164 904.534 117.927 904.084 117.778C903.634 117.63 903.158 117.574 902.686 117.612C901.691 117.522 900.7 117.82 899.92 118.443C899.14 119.067 898.631 119.968 898.5 120.959H898.579Z" fill="#F2F2F2"/>
<path d="M822.744 221.424H750.685C749.599 221.424 748.719 222.304 748.719 223.39V283.051C748.719 284.137 749.599 285.017 750.685 285.017H822.744C823.83 285.017 824.711 284.137 824.711 283.051V223.39C824.711 222.304 823.83 221.424 822.744 221.424Z" fill="#F7F7F7"/>
<path d="M787.726 225.896H785.918V280.371H787.726V225.896Z" fill="#0C0C0C"/>
<path d="M759.738 243.515V245.323H785.92V243.515H759.738Z" fill="#0C0C0C"/>
<path d="M787.68 260.976V262.784H813.861V260.976H787.68Z" fill="#0C0C0C"/>
<path d="M861.453 272.156C858.868 272.149 856.31 271.633 853.926 270.637C851.541 269.641 849.375 268.185 847.553 266.353C845.731 264.52 844.287 262.346 843.305 259.956C842.323 257.565 841.821 255.005 841.828 252.42C841.835 249.835 842.352 247.278 843.348 244.893C844.343 242.508 845.799 240.342 847.632 238.52C849.464 236.698 851.638 235.254 854.028 234.272C856.419 233.289 858.979 232.788 861.564 232.795C864.816 232.668 868.042 233.438 870.886 235.021C873.731 236.604 876.085 238.939 877.691 241.771L871.443 246.782C870.461 244.971 869.013 243.456 867.247 242.393C865.482 241.331 863.465 240.76 861.405 240.74C854.681 240.74 850.193 245.878 850.193 252.555C850.193 259.231 854.951 264.401 861.294 264.401C863.397 264.39 865.458 263.815 867.263 262.735C869.068 261.656 870.55 260.111 871.554 258.264L877.802 263.022C876.096 265.825 873.694 268.139 870.829 269.74C867.964 271.34 864.734 272.173 861.453 272.156Z" fill="#F2F2F2"/>
<path d="M889.857 244.165V259.596C889.857 263.132 891.792 265.051 894.773 265.051C898.31 265.051 900.165 262.006 900.165 258.422V244.149H908.285V271.553H900.498V268.033C899.646 269.391 898.44 270.493 897.01 271.219C895.579 271.945 893.979 272.269 892.379 272.156C885.861 272.156 881.754 267.89 881.754 260.785V244.165H889.857Z" fill="#F2F2F2"/>
<path d="M923.189 271.57H915.656V233.509H923.776V247.496C924.666 246.232 925.857 245.209 927.241 244.52C928.625 243.831 930.159 243.497 931.705 243.547C939.237 243.547 944.581 249.732 944.581 257.915C944.581 266.352 938.809 272.188 931.895 272.188C930.196 272.21 928.518 271.812 927.01 271.029C925.502 270.246 924.211 269.103 923.252 267.7L923.189 271.57ZM936.367 257.789C936.367 253.507 933.497 250.684 930.024 250.684C926.551 250.684 923.554 253.459 923.554 257.789C923.554 262.118 926.392 265.052 930.024 265.052C933.655 265.052 936.367 262.166 936.367 257.789Z" fill="#F2F2F2"/>
<path d="M974.937 256.187C974.909 257.412 974.744 258.63 974.445 259.818H956.193C956.621 263.498 959.872 265.321 963.456 265.321C964.728 265.335 965.989 265.091 967.164 264.603C968.339 264.115 969.402 263.394 970.29 262.483L974.556 267.716C973.016 269.194 971.195 270.348 969.201 271.111C967.208 271.873 965.082 272.229 962.948 272.157C953.766 272.157 947.788 265.908 947.788 257.884C947.73 256.004 948.053 254.132 948.738 252.38C949.422 250.629 950.454 249.034 951.771 247.691C953.088 246.349 954.663 245.287 956.401 244.569C958.14 243.852 960.005 243.493 961.886 243.516C969.704 243.611 974.937 248.812 974.937 256.187ZM956.082 254.791H967.024C966.988 254.144 966.823 253.51 966.539 252.927C966.255 252.344 965.858 251.823 965.371 251.395C964.884 250.966 964.317 250.64 963.702 250.433C963.087 250.227 962.437 250.145 961.791 250.192C960.434 250.094 959.09 250.514 958.031 251.368C956.971 252.221 956.275 253.444 956.082 254.791Z" fill="#F2F2F2"/>
<path d="M847.403 356.541H751.335C749.89 356.541 748.719 357.713 748.719 359.158V438.705C748.719 440.15 749.89 441.322 751.335 441.322H847.403C848.849 441.322 850.02 440.15 850.02 438.705V359.158C850.02 357.713 848.849 356.541 847.403 356.541Z" fill="#F7F7F7"/>
<path d="M800.719 362.504H798.324V435.121H800.719V362.504Z" fill="#0C0C0C"/>
<path d="M763.418 386.022V388.417H798.322V386.022H763.418Z" fill="#0C0C0C"/>
<path d="M800.672 409.287V411.682H835.575V409.287H800.672Z" fill="#0C0C0C"/>
<path d="M898.942 424.242C895.473 424.309 892.027 423.675 888.81 422.378C885.593 421.08 882.67 419.147 880.218 416.693C877.766 414.239 875.834 411.316 874.539 408.097C873.244 404.879 872.612 401.432 872.681 397.964C872.681 383.311 883.575 371.781 899.085 371.781C908.694 371.781 916.528 376.253 920.588 383.739L912.326 390.288C911.016 387.874 909.085 385.853 906.731 384.437C904.378 383.02 901.689 382.259 898.942 382.232C889.982 382.232 884.003 389.067 884.003 397.964C884.003 406.861 890.267 413.823 898.799 413.823C904.635 413.823 909.265 410.825 912.469 405.64L920.794 411.983C918.524 415.743 915.317 418.849 911.487 420.998C907.656 423.147 903.334 424.265 898.942 424.242Z" fill="#F2F2F2"/>
<path d="M936.889 386.863V407.479C936.889 412.236 939.458 414.726 943.439 414.726C948.196 414.726 950.622 410.666 950.622 405.909V386.878H961.454V423.353H951.051V418.596C949.921 420.415 948.318 421.893 946.413 422.871C944.508 423.849 942.372 424.29 940.235 424.146C931.545 424.146 926.074 418.453 926.074 408.985V386.783L936.889 386.863Z" fill="#F2F2F2"/>
<path d="M981.308 423.386H971.27V372.638H982.101V391.288C983.284 389.608 984.865 388.248 986.703 387.33C988.54 386.411 990.577 385.962 992.63 386.022C1002.67 386.022 1009.79 394.285 1009.79 405.18C1009.79 416.424 1002.1 424.21 992.852 424.21C989.221 424.21 983.94 422.624 981.308 418.232V423.386ZM998.894 405.021C998.894 399.328 995.057 395.506 990.426 395.506C985.796 395.506 981.815 399.201 981.815 405.021C981.815 410.841 985.589 414.695 990.426 414.695C995.263 414.695 998.894 410.857 998.894 405.021Z" fill="#F2F2F2"/>
<path d="M1050.29 402.88C1050.25 404.515 1050.04 406.142 1049.66 407.733H1025.31C1025.88 412.633 1030.21 415.059 1034.99 415.059C1036.68 415.077 1038.36 414.751 1039.93 414.103C1041.5 413.454 1042.92 412.496 1044.11 411.285L1049.8 418.263C1047.75 420.246 1045.32 421.796 1042.66 422.823C1040 423.85 1037.16 424.333 1034.31 424.242C1022.06 424.242 1014.09 415.916 1014.09 405.211C1014.01 402.706 1014.44 400.211 1015.36 397.877C1016.27 395.543 1017.65 393.417 1019.4 391.628C1021.16 389.839 1023.25 388.423 1025.57 387.465C1027.89 386.507 1030.37 386.027 1032.88 386.054C1043.31 386.006 1050.29 393.063 1050.29 402.88ZM1025.17 401.024H1039.76C1039.71 400.161 1039.49 399.317 1039.11 398.54C1038.74 397.763 1038.21 397.069 1037.56 396.499C1036.91 395.929 1036.15 395.494 1035.33 395.22C1034.51 394.946 1033.64 394.838 1032.78 394.903C1030.97 394.768 1029.18 395.325 1027.77 396.462C1026.36 397.598 1025.43 399.229 1025.17 401.024Z" fill="#F2F2F2"/>
<path d="M872.079 508.483H751.986C750.181 508.483 748.719 509.946 748.719 511.75V611.185C748.719 612.989 750.181 614.452 751.986 614.452H872.079C873.883 614.452 875.345 612.989 875.345 611.185V511.75C875.345 509.946 873.883 508.483 872.079 508.483Z" fill="#F7F7F7"/>
<path d="M813.704 515.938H810.707V606.713H813.704V515.938Z" fill="#0C0C0C"/>
<path d="M767.082 545.324V548.321H810.708V545.324H767.082Z" fill="#0C0C0C"/>
<path d="M813.656 574.408V577.405H857.282V574.408H813.656Z" fill="#0C0C0C"/>
<path d="M936.493 593.105C932.157 593.191 927.849 592.401 923.827 590.782C919.804 589.163 916.15 586.749 913.083 583.683C910.017 580.618 907.6 576.965 905.98 572.943C904.359 568.921 903.566 564.613 903.651 560.278C903.651 541.945 917.273 527.529 936.667 527.529C948.672 527.529 958.377 533.143 963.531 542.484L953.223 550.667C951.582 547.653 949.166 545.132 946.225 543.365C943.284 541.597 939.924 540.647 936.493 540.613C925.281 540.613 917.796 549.161 917.796 560.278C917.796 571.395 925.63 580.038 936.318 580.038C943.613 580.038 949.385 576.295 953.397 569.793L963.8 577.802C960.961 582.497 956.952 586.375 952.166 589.057C947.38 591.74 941.979 593.134 936.493 593.105Z" fill="#F2F2F2"/>
<path d="M983.925 546.402V572.109C983.925 577.977 987.097 581.18 992.108 581.18C997.976 581.18 1001.1 576.121 1001.1 570.158V546.37H1014.61V592.012H1001.62V586.16C998.689 590.917 994.154 593.09 988.096 593.09C977.249 593.09 970.398 585.969 970.398 574.139V546.386L983.925 546.402Z" fill="#F2F2F2"/>
<path d="M1039.45 592.043H1026.9V528.608H1040.43V551.905C1041.91 549.806 1043.89 548.106 1046.18 546.958C1048.48 545.809 1051.02 545.248 1053.59 545.324C1066.14 545.324 1075.03 555.648 1075.03 569.27C1075.03 583.321 1065.42 593.058 1053.86 593.058C1049.33 593.058 1042.76 591.013 1039.45 585.589V592.043ZM1061.43 569.08C1061.43 561.959 1056.67 557.249 1050.83 557.249C1044.79 557.249 1040.06 561.88 1040.06 569.08C1040.06 576.28 1044.82 581.18 1050.83 581.18C1056.62 581.18 1061.43 576.375 1061.43 569.08Z" fill="#F2F2F2"/>
<path d="M1125.67 566.415C1125.61 568.456 1125.35 570.487 1124.87 572.473H1094.44C1095.15 578.61 1100.58 581.639 1106.54 581.639C1108.66 581.653 1110.76 581.238 1112.72 580.421C1114.67 579.604 1116.45 578.4 1117.93 576.882L1125.05 585.604C1122.49 588.091 1119.45 590.037 1116.12 591.326C1112.79 592.614 1109.24 593.22 1105.67 593.105C1090.37 593.105 1080.41 582.702 1080.41 569.317C1080.41 555.932 1090.37 545.37 1103.89 545.37C1116.94 545.323 1125.67 554.14 1125.67 566.415ZM1094.27 564.099H1112.5C1112.23 559.342 1108.49 556.44 1103.78 556.44C1099.07 556.44 1094.88 559.199 1094.27 564.099Z" fill="#F2F2F2"/>
<path d="M907.617 705.877H752.921C750.6 705.877 748.719 707.758 748.719 710.08V838.155C748.719 840.476 750.6 842.357 752.921 842.357H907.617C909.937 842.357 911.819 840.476 911.819 838.155V710.08C911.819 707.758 909.937 705.877 907.617 705.877Z" fill="#F7F7F7"/>
<path d="M832.432 715.487H828.562V832.398H832.432V715.487Z" fill="#0C0C0C"/>
<path d="M772.363 753.327V757.196H828.548V753.327H772.363Z" fill="#0C0C0C"/>
<path d="M832.34 790.769V794.639H888.525V790.769H832.34Z" fill="#0C0C0C"/>
<path d="M990.571 814.874C966.165 814.874 948.277 796.192 948.277 772.579C948.277 748.965 965.816 730.474 990.809 730.474C1006.27 730.474 1018.77 737.705 1025.43 749.742L1012.11 760.209C1010 756.323 1006.88 753.073 1003.1 750.794C999.306 748.516 994.976 747.293 990.555 747.252C976.124 747.252 966.482 758.258 966.482 772.626C966.482 786.994 976.568 798.079 990.269 798.079C999.673 798.079 1007.11 793.322 1012.28 784.901L1025.68 795.209C1022.02 801.24 1016.87 806.221 1010.72 809.667C1004.56 813.113 997.623 814.907 990.571 814.874Z" fill="#F2F2F2"/>
<path d="M1051.65 754.706V787.835C1051.65 795.4 1055.78 799.523 1062.2 799.523C1069.76 799.523 1073.78 792.989 1073.78 785.25V754.706H1091.22V813.51H1074.47V805.946C1070.68 812.02 1064.83 814.874 1057.03 814.874C1043.04 814.874 1034.23 805.708 1034.23 790.468V754.706H1051.65Z" fill="#F2F2F2"/>
<path d="M1123.11 813.51H1107.02V731.774H1124.46V761.811C1128.23 755.959 1135.12 753.326 1141.41 753.326C1157.59 753.326 1169.04 766.616 1169.04 784.156C1169.04 802.267 1156.67 814.874 1141.76 814.874C1135.91 814.874 1127.49 812.242 1123.19 805.248L1123.11 813.51ZM1151.42 783.934C1151.42 774.767 1145.23 768.678 1137.78 768.678C1129.99 768.678 1123.92 774.641 1123.92 783.934C1123.92 793.227 1129.99 799.523 1137.78 799.523C1145.31 799.523 1151.48 793.338 1151.48 783.934H1151.42Z" fill="#F2F2F2"/>
<path d="M1234.23 780.492C1234.16 783.122 1233.82 785.738 1233.2 788.295H1193.99C1194.91 796.224 1201.92 800.094 1209.58 800.094C1212.31 800.12 1215.02 799.596 1217.54 798.552C1220.07 797.509 1222.35 795.967 1224.27 794.02L1233.43 805.248C1230.14 808.435 1226.24 810.929 1221.97 812.583C1217.69 814.236 1213.13 815.015 1208.55 814.874C1188.84 814.874 1176.01 801.473 1176.01 784.156C1176.01 766.838 1188.84 753.326 1206.27 753.326C1223.02 753.326 1234.23 764.681 1234.23 780.492ZM1193.77 777.511H1217.27V777.4C1216.93 771.326 1212.1 767.536 1206.03 767.536C1199.96 767.536 1194.58 771.199 1193.77 777.511Z" fill="#F2F2F2"/>
<path d="M19.6602 185.789H647.64" stroke="black" stroke-width="1.80164" stroke-miterlimit="10"/>
<path d="M19.6602 321.382H647.64" stroke="black" stroke-width="1.80164" stroke-miterlimit="10"/>
<path d="M19.6602 470.454H647.64" stroke="black" stroke-width="1.80164" stroke-miterlimit="10"/>
<path d="M19.6602 657.587H647.64" stroke="black" stroke-width="1.80164" stroke-miterlimit="10"/>
<path d="M690.457 185.789H1318.44" stroke="white" stroke-width="1.80164" stroke-miterlimit="10"/>
<path d="M690.457 321.382H1318.44" stroke="white" stroke-width="1.80164" stroke-miterlimit="10"/>
<path d="M690.457 470.454H1318.44" stroke="white" stroke-width="1.80164" stroke-miterlimit="10"/>
<path d="M690.457 657.587H1318.44" stroke="white" stroke-width="1.80164" stroke-miterlimit="10"/>
</svg>
